<svg xmlns="http://www.w3.org/2000/svg" width="143.57" height="127.38" viewBox="0 0 143.57 127.38"><defs><style>.a{fill:#010101;}.b{font-size:60.88px;fill:#fff;stroke:#231f20;stroke-miterlimit:10;stroke-width:2px;font-family:IBMPlexSans-Bold, IBM Plex Sans;font-weight:700;}</style></defs><title>venn-diagram-4</title><path class="a" d="M236.86,250.72a1.53,1.53,0,0,0-1.09,2.85A1.53,1.53,0,0,0,236.86,250.72Z" transform="translate(-161.06 -157.13)"/><path class="a" d="M240.36,267a1.53,1.53,0,0,1,1.62-2.6A1.53,1.53,0,0,1,240.36,267Z" transform="translate(-161.06 -157.13)"/><path class="a" d="M242.55,239.25a1.53,1.53,0,0,0-1.39,2.72A1.53,1.53,0,0,0,242.55,239.25Z" transform="translate(-161.06 -157.13)"/><path class="a" d="M184.5,190.14a1.53,1.53,0,0,0-.53-3A1.53,1.53,0,0,0,184.5,190.14Z" transform="translate(-161.06 -157.13)"/><path class="a" d="M193.1,192.57a1.53,1.53,0,0,1,0-3.06A1.53,1.53,0,0,1,193.1,192.57Z" transform="translate(-161.06 -157.13)"/><path class="a" d="M254.66,212a1.53,1.53,0,0,1-2.83-1.15A1.53,1.53,0,0,1,254.66,212Z" transform="translate(-161.06 -157.13)"/><path class="a" d="M227.18,250.82a1.53,1.53,0,0,1,.85-2.94A1.53,1.53,0,0,1,227.18,250.82Z" transform="translate(-161.06 -157.13)"/><path class="a" d="M203.23,197.7a1.53,1.53,0,0,0-2.27-2A1.53,1.53,0,0,0,203.23,197.7Z" transform="translate(-161.06 -157.13)"/><path class="a" d="M252.09,232a1.53,1.53,0,0,0,2.93-.89A1.53,1.53,0,0,0,252.09,232Z" transform="translate(-161.06 -157.13)"/><path class="a" d="M264.8,230.3a1.53,1.53,0,0,1,1.62,2.59A1.53,1.53,0,0,1,264.8,230.3Z" transform="translate(-161.06 -157.13)"/><path class="a" d="M283.94,179.09a1.53,1.53,0,0,0,.9,2.93A1.53,1.53,0,0,0,283.94,179.09Z" transform="translate(-161.06 -157.13)"/><path class="a" d="M227.33,277.73a1.53,1.53,0,0,1,2.3,2A1.53,1.53,0,0,1,227.33,277.73Z" transform="translate(-161.06 -157.13)"/><path class="a" d="M259,198a1.53,1.53,0,0,1,2.56-1.67A1.53,1.53,0,0,1,259,198Z" transform="translate(-161.06 -157.13)"/><path class="a" d="M258.19,188.67a1.53,1.53,0,0,0,2.91.94A1.53,1.53,0,0,0,258.19,188.67Z" transform="translate(-161.06 -157.13)"/><path class="a" d="M232.58,184a1.53,1.53,0,0,0,3-.58A1.53,1.53,0,0,0,232.58,184Z" transform="translate(-161.06 -157.13)"/><path class="a" d="M245.81,176.21a1.53,1.53,0,0,0,.59-3A1.53,1.53,0,0,0,245.81,176.21Z" transform="translate(-161.06 -157.13)"/><path class="a" d="M186.48,186.09a1.53,1.53,0,0,1-.43-3A1.53,1.53,0,0,1,186.48,186.09Z" transform="translate(-161.06 -157.13)"/><path class="a" d="M186.45,172.51a1.53,1.53,0,0,0,1-2.91A1.53,1.53,0,0,0,186.45,172.51Z" transform="translate(-161.06 -157.13)"/><path class="a" d="M174.2,194.92a1.53,1.53,0,0,0,1.09-2.85A1.53,1.53,0,0,0,174.2,194.92Z" transform="translate(-161.06 -157.13)"/><path class="a" d="M276,209.71a1.53,1.53,0,0,1-.37-3A1.53,1.53,0,0,1,276,209.71Z" transform="translate(-161.06 -157.13)"/><path class="a" d="M268,197.76a1.53,1.53,0,0,0-3.05-.26A1.53,1.53,0,0,0,268,197.76Z" transform="translate(-161.06 -157.13)"/><path class="a" d="M203.34,221a1.53,1.53,0,0,1,3-.05A1.53,1.53,0,0,1,203.34,221Z" transform="translate(-161.06 -157.13)"/><path class="a" d="M234.79,180.32c2.54-1.52.17-5.47-2.37-3.94S232.25,181.85,234.79,180.32Z" transform="translate(-161.06 -157.13)"/><path class="a" d="M216.82,172.51a1.53,1.53,0,0,0-1.48-2.68A1.53,1.53,0,0,0,216.82,172.51Z" transform="translate(-161.06 -157.13)"/><path class="a" d="M212,171.57a1.53,1.53,0,0,0-.79-3A1.53,1.53,0,0,0,212,171.57Z" transform="translate(-161.06 -157.13)"/><path class="a" d="M174.32,216.6a1.53,1.53,0,0,0-.37-3A1.53,1.53,0,0,0,174.32,216.6Z" transform="translate(-161.06 -157.13)"/><path class="a" d="M278.92,175.84a1.53,1.53,0,0,1,3-.53A1.53,1.53,0,0,1,278.92,175.84Z" transform="translate(-161.06 -157.13)"/><path class="a" d="M296.88,190.78a1.53,1.53,0,0,0,2.6-1.62A1.53,1.53,0,0,0,296.88,190.78Z" transform="translate(-161.06 -157.13)"/><path class="a" d="M243.91,216.71a1.53,1.53,0,0,1,.32-3.05A1.53,1.53,0,0,1,243.91,216.71Z" transform="translate(-161.06 -157.13)"/><path class="a" d="M284.2,218.79a1.53,1.53,0,0,1-.58-3A1.53,1.53,0,0,1,284.2,218.79Z" transform="translate(-161.06 -157.13)"/><path class="a" d="M164.27,173.05a1.53,1.53,0,0,0,1.57,2.63A1.53,1.53,0,0,0,164.27,173.05Z" transform="translate(-161.06 -157.13)"/><path class="a" d="M166.93,177.44a1.53,1.53,0,0,0,1.76,2.51A1.53,1.53,0,0,0,166.93,177.44Z" transform="translate(-161.06 -157.13)"/><path class="a" d="M232.92,204.25a1.53,1.53,0,0,0,1.92-2.37A1.53,1.53,0,0,0,232.92,204.25Z" transform="translate(-161.06 -157.13)"/><path class="a" d="M235.55,188.89a1.53,1.53,0,0,0,3,.53A1.53,1.53,0,0,0,235.55,188.89Z" transform="translate(-161.06 -157.13)"/><path class="a" d="M221.88,195.33a1.53,1.53,0,0,0-.21-3.05A1.53,1.53,0,0,0,221.88,195.33Z" transform="translate(-161.06 -157.13)"/><path class="a" d="M245.29,252.87a1.53,1.53,0,0,0,2.82,1.19A1.53,1.53,0,0,0,245.29,252.87Z" transform="translate(-161.06 -157.13)"/><path class="a" d="M243.28,260.22a1.53,1.53,0,0,1,1.24,2.79A1.53,1.53,0,0,1,243.28,260.22Z" transform="translate(-161.06 -157.13)"/><path class="a" d="M269.88,244.85a1.53,1.53,0,0,0-.63,3A1.53,1.53,0,0,0,269.88,244.85Z" transform="translate(-161.06 -157.13)"/><path class="a" d="M237,175.52a1.53,1.53,0,0,0,2.59-1.62A1.53,1.53,0,0,0,237,175.52Z" transform="translate(-161.06 -157.13)"/><path class="a" d="M220.49,197.07a1.53,1.53,0,0,0,.27,3.05A1.53,1.53,0,0,0,220.49,197.07Z" transform="translate(-161.06 -157.13)"/><path class="a" d="M186.77,216.64a1.53,1.53,0,0,0-2-2.31A1.53,1.53,0,0,0,186.77,216.64Z" transform="translate(-161.06 -157.13)"/><path class="a" d="M208.11,214a1.53,1.53,0,0,0-.53-3A1.53,1.53,0,0,0,208.11,214Z" transform="translate(-161.06 -157.13)"/><path class="a" d="M276.67,177.46a1.53,1.53,0,0,1-1,2.87A1.53,1.53,0,0,1,276.67,177.46Z" transform="translate(-161.06 -157.13)"/><path class="a" d="M191.87,232.86a1.53,1.53,0,0,0-1.48-2.68A1.53,1.53,0,0,0,191.87,232.86Z" transform="translate(-161.06 -157.13)"/><path class="a" d="M234.7,249c2.1-2.09-1.15-5.35-3.25-3.25S232.61,251.11,234.7,249Z" transform="translate(-161.06 -157.13)"/><path class="a" d="M205.78,251.2c2.95-.2,2.64-4.79-.32-4.59S202.82,251.41,205.78,251.2Z" transform="translate(-161.06 -157.13)"/><path class="a" d="M198.89,165.92a1.53,1.53,0,0,1-3,.21A1.53,1.53,0,0,1,198.89,165.92Z" transform="translate(-161.06 -157.13)"/><path class="a" d="M245.18,231.8a1.53,1.53,0,0,1,.27-3A1.53,1.53,0,0,1,245.18,231.8Z" transform="translate(-161.06 -157.13)"/><path class="a" d="M233.8,162.39a1.53,1.53,0,0,1-2.72-1.39A1.53,1.53,0,0,1,233.8,162.39Z" transform="translate(-161.06 -157.13)"/><path class="a" d="M224.93,160.18a1.53,1.53,0,0,0,.43-3A1.53,1.53,0,0,0,224.93,160.18Z" transform="translate(-161.06 -157.13)"/><path class="a" d="M206,179a1.54,1.54,0,0,0,3-.48A1.54,1.54,0,0,0,206,179Z" transform="translate(-161.06 -157.13)"/><path class="a" d="M216.78,194.2a1.53,1.53,0,0,1-2.57,1.67A1.53,1.53,0,0,1,216.78,194.2Z" transform="translate(-161.06 -157.13)"/><path class="a" d="M260.67,232.51a1.53,1.53,0,0,1-2.73-1.38A1.53,1.53,0,0,1,260.67,232.51Z" transform="translate(-161.06 -157.13)"/><path class="a" d="M229.17,228a1.53,1.53,0,0,1-2.56-1.67A1.53,1.53,0,0,1,229.17,228Z" transform="translate(-161.06 -157.13)"/><path class="a" d="M212.47,234.22a1.53,1.53,0,0,0-2.62-1.57A1.53,1.53,0,0,0,212.47,234.22Z" transform="translate(-161.06 -157.13)"/><path class="a" d="M285.4,201.93a1.53,1.53,0,0,0,1.29,2.77A1.53,1.53,0,0,0,285.4,201.93Z" transform="translate(-161.06 -157.13)"/><path class="a" d="M224.55,210.43a1.53,1.53,0,0,0,3-.11A1.53,1.53,0,0,0,224.55,210.43Z" transform="translate(-161.06 -157.13)"/><path class="a" d="M272.77,220.16c2.53-1.52,4.91,2.42,2.37,3.94S270.23,221.69,272.77,220.16Z" transform="translate(-161.06 -157.13)"/><path class="a" d="M232,190a1.53,1.53,0,0,1,.32,3A1.53,1.53,0,0,1,232,190Z" transform="translate(-161.06 -157.13)"/><path class="a" d="M252.83,239.72a1.53,1.53,0,0,1-2.89-1A1.53,1.53,0,0,1,252.83,239.72Z" transform="translate(-161.06 -157.13)"/><path class="a" d="M194.84,226.11a1.53,1.53,0,0,0,1.1,2.85A1.53,1.53,0,0,0,194.84,226.11Z" transform="translate(-161.06 -157.13)"/><path class="a" d="M182.22,223.21A1.53,1.53,0,0,1,185,222,1.53,1.53,0,0,1,182.22,223.21Z" transform="translate(-161.06 -157.13)"/><path class="a" d="M242.42,251.23a1.53,1.53,0,0,1-1.48,2.67A1.53,1.53,0,0,1,242.42,251.23Z" transform="translate(-161.06 -157.13)"/><path class="a" d="M244.4,247a1.53,1.53,0,0,0-.21-3A1.53,1.53,0,0,0,244.4,247Z" transform="translate(-161.06 -157.13)"/><path class="a" d="M238.65,241.38a1.53,1.53,0,0,0-1.66,2.56A1.53,1.53,0,0,0,238.65,241.38Z" transform="translate(-161.06 -157.13)"/><path class="a" d="M179.93,197.53a1.53,1.53,0,0,1-3,.48A1.53,1.53,0,0,1,179.93,197.53Z" transform="translate(-161.06 -157.13)"/><path class="a" d="M231.85,271.09a1.53,1.53,0,0,0,0,3.06A1.53,1.53,0,0,0,231.85,271.09Z" transform="translate(-161.06 -157.13)"/><path class="a" d="M230.45,283.25a1.53,1.53,0,0,1,3-.43A1.53,1.53,0,0,1,230.45,283.25Z" transform="translate(-161.06 -157.13)"/><path class="a" d="M287.78,168.76a1.53,1.53,0,0,1-2.51,1.75A1.53,1.53,0,0,1,287.78,168.76Z" transform="translate(-161.06 -157.13)"/><path class="a" d="M303.57,191.56a1.53,1.53,0,0,1-.84,2.94A1.53,1.53,0,0,1,303.57,191.56Z" transform="translate(-161.06 -157.13)"/><path class="a" d="M212.5,166.16a1.53,1.53,0,0,1,3-.69A1.53,1.53,0,0,1,212.5,166.16Z" transform="translate(-161.06 -157.13)"/><path class="a" d="M263.07,192.08a1.53,1.53,0,0,1-1,2.9A1.53,1.53,0,0,1,263.07,192.08Z" transform="translate(-161.06 -157.13)"/><path class="a" d="M275.53,185a1.53,1.53,0,0,0-2.65-1.53A1.53,1.53,0,0,0,275.53,185Z" transform="translate(-161.06 -157.13)"/><path class="a" d="M291.76,220.68a1.53,1.53,0,0,0,.79-3A1.53,1.53,0,0,0,291.76,220.68Z" transform="translate(-161.06 -157.13)"/><path class="a" d="M286.23,233.36a1.53,1.53,0,0,0,3.06-.05A1.53,1.53,0,0,0,286.23,233.36Z" transform="translate(-161.06 -157.13)"/><path class="a" d="M222,241.54a1.53,1.53,0,0,0-1.14-2.83A1.53,1.53,0,0,0,222,241.54Z" transform="translate(-161.06 -157.13)"/><path class="a" d="M212.16,248.36a1.53,1.53,0,0,0-2.59-1.62A1.53,1.53,0,0,0,212.16,248.36Z" transform="translate(-161.06 -157.13)"/><path class="a" d="M257.55,247.66a1.53,1.53,0,0,0,1.34-2.75A1.53,1.53,0,0,0,257.55,247.66Z" transform="translate(-161.06 -157.13)"/><path class="a" d="M187.41,233.05a1.53,1.53,0,0,0-1.93,2.38A1.53,1.53,0,0,0,187.41,233.05Z" transform="translate(-161.06 -157.13)"/><path class="a" d="M228.6,253a1.53,1.53,0,0,0-1.53,2.65A1.53,1.53,0,0,0,228.6,253Z" transform="translate(-161.06 -157.13)"/><path class="a" d="M235.73,261c1.11,2.74,5.37,1,4.26-1.73S234.62,258.28,235.73,261Z" transform="translate(-161.06 -157.13)"/><path class="a" d="M233,253.87a1.53,1.53,0,0,0,1,2.89A1.53,1.53,0,0,0,233,253.87Z" transform="translate(-161.06 -157.13)"/><path class="a" d="M236.77,266.19a1.53,1.53,0,0,0-3.05.21A1.53,1.53,0,0,0,236.77,266.19Z" transform="translate(-161.06 -157.13)"/><path class="a" d="M275.3,247.11c-2.95.21-2.64,4.8.32,4.59S278.26,246.9,275.3,247.11Z" transform="translate(-161.06 -157.13)"/><path class="a" d="M196.29,222a1.53,1.53,0,0,1,2.5,1.75A1.53,1.53,0,0,1,196.29,222Z" transform="translate(-161.06 -157.13)"/><path class="a" d="M255.91,203.76c-2.73-1.15-4.53,3.08-1.8,4.24S258.64,204.92,255.91,203.76Z" transform="translate(-161.06 -157.13)"/><path class="a" d="M263.23,202.2a1.53,1.53,0,0,1-.37-3A1.53,1.53,0,0,1,263.23,202.2Z" transform="translate(-161.06 -157.13)"/><path class="a" d="M241.7,279.69a1.54,1.54,0,0,1,1.58,2.63A1.54,1.54,0,0,1,241.7,279.69Z" transform="translate(-161.06 -157.13)"/><path class="a" d="M246.87,266.26a1.53,1.53,0,0,0-3,.43A1.53,1.53,0,0,0,246.87,266.26Z" transform="translate(-161.06 -157.13)"/><path class="a" d="M239.38,267.92a1.53,1.53,0,0,1-.89,2.92A1.53,1.53,0,0,1,239.38,267.92Z" transform="translate(-161.06 -157.13)"/><path class="a" d="M210.15,160.83a1.53,1.53,0,0,1-2.62,1.57A1.53,1.53,0,0,1,210.15,160.83Z" transform="translate(-161.06 -157.13)"/><path class="a" d="M203.69,163.7a1.53,1.53,0,0,1-2.62,1.58A1.53,1.53,0,0,1,203.69,163.7Z" transform="translate(-161.06 -157.13)"/><path class="a" d="M208.37,169.14c-.57,2.9-5.08,2-4.52-.88S208.93,166.23,208.37,169.14Z" transform="translate(-161.06 -157.13)"/><path class="a" d="M246.58,247.72a1.53,1.53,0,0,1,1.44,2.7A1.53,1.53,0,0,1,246.58,247.72Z" transform="translate(-161.06 -157.13)"/><path class="a" d="M247,240.19a1.53,1.53,0,0,1-1.88,2.41A1.53,1.53,0,0,1,247,240.19Z" transform="translate(-161.06 -157.13)"/><path class="a" d="M253.23,249.33a1.53,1.53,0,0,1,2-2.31A1.53,1.53,0,0,1,253.23,249.33Z" transform="translate(-161.06 -157.13)"/><path class="a" d="M171.32,179.74a1.53,1.53,0,0,0,1.53-2.65A1.53,1.53,0,0,0,171.32,179.74Z" transform="translate(-161.06 -157.13)"/><path class="a" d="M181.11,191c1.39-2.62-2.67-4.78-4.06-2.16S179.72,193.65,181.11,191Z" transform="translate(-161.06 -157.13)"/><path class="a" d="M239.42,220.46a1.53,1.53,0,0,1-1.48,2.68A1.53,1.53,0,0,1,239.42,220.46Z" transform="translate(-161.06 -157.13)"/><path class="a" d="M245.16,225.2a1.53,1.53,0,0,1-2.79-1.25A1.53,1.53,0,0,1,245.16,225.2Z" transform="translate(-161.06 -157.13)"/><path class="a" d="M239.62,237.86a1.53,1.53,0,0,0,.84-2.94A1.53,1.53,0,0,0,239.62,237.86Z" transform="translate(-161.06 -157.13)"/><path class="a" d="M190,195.94c-2.33,3.19-7.3-.41-5-3.61S192.31,192.74,190,195.94Z" transform="translate(-161.06 -157.13)"/><path class="a" d="M299.39,184.27a1.53,1.53,0,0,0-2.54,1.71A1.53,1.53,0,0,0,299.39,184.27Z" transform="translate(-161.06 -157.13)"/><path class="a" d="M302,183.05a1.53,1.53,0,0,1-.69-3A1.53,1.53,0,0,1,302,183.05Z" transform="translate(-161.06 -157.13)"/><path class="a" d="M293.58,172.55a1.53,1.53,0,0,0,.05-3.06A1.53,1.53,0,0,0,293.58,172.55Z" transform="translate(-161.06 -157.13)"/><path class="a" d="M286.48,178.54a1.53,1.53,0,0,0,2.12-2.2A1.53,1.53,0,0,0,286.48,178.54Z" transform="translate(-161.06 -157.13)"/><path class="a" d="M232.15,171.05a1.53,1.53,0,0,0,1.43-2.7A1.53,1.53,0,0,0,232.15,171.05Z" transform="translate(-161.06 -157.13)"/><path class="a" d="M220.77,168.15a1.53,1.53,0,0,0-3,.32A1.53,1.53,0,0,0,220.77,168.15Z" transform="translate(-161.06 -157.13)"/><path class="a" d="M230.8,171.73a1.53,1.53,0,0,1-2.31,2A1.53,1.53,0,0,1,230.8,171.73Z" transform="translate(-161.06 -157.13)"/><path class="a" d="M211.9,213.53a1.53,1.53,0,0,0,2.16-2.16A1.53,1.53,0,0,0,211.9,213.53Z" transform="translate(-161.06 -157.13)"/><path class="a" d="M250.76,229.34c2.8-1,1.3-5.32-1.5-4.35S248,230.3,250.76,229.34Z" transform="translate(-161.06 -157.13)"/><path class="a" d="M259.56,228.27a1.53,1.53,0,0,1,.9-2.92A1.53,1.53,0,0,1,259.56,228.27Z" transform="translate(-161.06 -157.13)"/><path class="a" d="M246.93,222c2.95.31,3.43-4.26.48-4.57S244,221.67,246.93,222Z" transform="translate(-161.06 -157.13)"/><path class="a" d="M249.48,214.45a1.53,1.53,0,0,0,2.88,1A1.53,1.53,0,0,0,249.48,214.45Z" transform="translate(-161.06 -157.13)"/><path class="a" d="M187.68,212.05a1.53,1.53,0,0,0-2.05-2.28A1.53,1.53,0,0,0,187.68,212.05Z" transform="translate(-161.06 -157.13)"/><path class="a" d="M181,213.9a1.53,1.53,0,0,0,.63-3A1.53,1.53,0,0,0,181,213.9Z" transform="translate(-161.06 -157.13)"/><path class="a" d="M175.93,201.82a1.53,1.53,0,0,1,1.2,2.82A1.53,1.53,0,0,1,175.93,201.82Z" transform="translate(-161.06 -157.13)"/><path class="a" d="M170.71,209.73a1.53,1.53,0,0,1-3,.69A1.53,1.53,0,0,1,170.71,209.73Z" transform="translate(-161.06 -157.13)"/><path class="a" d="M167.44,204.53a1.53,1.53,0,0,0-1.29-2.77A1.53,1.53,0,0,0,167.44,204.53Z" transform="translate(-161.06 -157.13)"/><path class="a" d="M175.46,210.73a1.53,1.53,0,0,0-.32-3A1.53,1.53,0,0,0,175.46,210.73Z" transform="translate(-161.06 -157.13)"/><path class="a" d="M220,249.77a1.53,1.53,0,0,0-1-2.89A1.53,1.53,0,0,0,220,249.77Z" transform="translate(-161.06 -157.13)"/><path class="a" d="M215.29,261.5a1.53,1.53,0,0,0-.37-3A1.53,1.53,0,0,0,215.29,261.5Z" transform="translate(-161.06 -157.13)"/><path class="a" d="M224.5,249.33a1.53,1.53,0,0,1-2,2.34A1.53,1.53,0,0,1,224.5,249.33Z" transform="translate(-161.06 -157.13)"/><path class="a" d="M210,254.88c2.39,1.74,5.1-2,2.7-3.72S207.62,253.14,210,254.88Z" transform="translate(-161.06 -157.13)"/><path class="a" d="M209.19,270.5a1.53,1.53,0,0,1,3-.69A1.53,1.53,0,0,1,209.19,270.5Z" transform="translate(-161.06 -157.13)"/><path class="a" d="M209.43,260.53a1.53,1.53,0,0,0,1.48,2.68A1.53,1.53,0,0,0,209.43,260.53Z" transform="translate(-161.06 -157.13)"/><path class="a" d="M199.82,173.39c-2.94.31-3.43-4.27-.48-4.58S202.77,173.08,199.82,173.39Z" transform="translate(-161.06 -157.13)"/><path class="a" d="M204.84,174.85a1.53,1.53,0,0,1-2.16,2.17A1.53,1.53,0,0,1,204.84,174.85Z" transform="translate(-161.06 -157.13)"/><path class="a" d="M192.67,181.7c-1.53,2.53-5.47.17-3.94-2.37S194.19,179.16,192.67,181.7Z" transform="translate(-161.06 -157.13)"/><path class="a" d="M195.34,185.74c-1.48,3.67,4.21,6,5.69,2.3S196.82,182.07,195.34,185.74Z" transform="translate(-161.06 -157.13)"/><path class="a" d="M195.35,172.18A1.53,1.53,0,0,0,193,174.1,1.53,1.53,0,0,0,195.35,172.18Z" transform="translate(-161.06 -157.13)"/><path class="a" d="M301.43,197.17a1.53,1.53,0,0,0-1.66,2.56A1.53,1.53,0,0,0,301.43,197.17Z" transform="translate(-161.06 -157.13)"/><path class="a" d="M206.24,200.27a1.53,1.53,0,0,1-.27-3.05A1.53,1.53,0,0,1,206.24,200.27Z" transform="translate(-161.06 -157.13)"/><path class="a" d="M206.84,191.21c1.06,2.76-3.23,4.41-4.29,1.64S205.78,188.44,206.84,191.21Z" transform="translate(-161.06 -157.13)"/><path class="a" d="M226.63,270.18c.56,2.9-3.95,3.79-4.52.88S226.06,267.27,226.63,270.18Z" transform="translate(-161.06 -157.13)"/><path class="a" d="M216.93,266.11a1.53,1.53,0,0,0-3.05.22A1.53,1.53,0,0,0,216.93,266.11Z" transform="translate(-161.06 -157.13)"/><path class="a" d="M254.87,236a1.53,1.53,0,0,0,2.28-2A1.53,1.53,0,0,0,254.87,236Z" transform="translate(-161.06 -157.13)"/><path class="a" d="M257.89,240.6a1.53,1.53,0,0,0-2.23,2.09A1.53,1.53,0,0,0,257.89,240.6Z" transform="translate(-161.06 -157.13)"/><path class="a" d="M268.9,226.58a1.53,1.53,0,0,1,0,3.06A1.53,1.53,0,0,1,268.9,226.58Z" transform="translate(-161.06 -157.13)"/><path class="a" d="M262.89,228.06a1.53,1.53,0,0,0,2.88-1A1.53,1.53,0,0,0,262.89,228.06Z" transform="translate(-161.06 -157.13)"/><path class="a" d="M263.84,218a1.53,1.53,0,0,0-1,2.87A1.53,1.53,0,0,0,263.84,218Z" transform="translate(-161.06 -157.13)"/><path class="a" d="M280.76,182.5a1.53,1.53,0,0,1,1.71,2.54A1.53,1.53,0,0,1,280.76,182.5Z" transform="translate(-161.06 -157.13)"/><path class="a" d="M255.51,201.25a1.53,1.53,0,0,1,1.44-2.7A1.53,1.53,0,0,1,255.51,201.25Z" transform="translate(-161.06 -157.13)"/><path class="a" d="M257.85,195.49a1.53,1.53,0,0,1-3.05.27A1.53,1.53,0,0,1,257.85,195.49Z" transform="translate(-161.06 -157.13)"/><path class="a" d="M254.92,191.64c-2.86.77-4-3.67-1.19-4.44S257.79,190.88,254.92,191.64Z" transform="translate(-161.06 -157.13)"/><path class="a" d="M255.87,180.08a1.53,1.53,0,0,0-3.05-.32A1.53,1.53,0,0,0,255.87,180.08Z" transform="translate(-161.06 -157.13)"/><path class="a" d="M239.24,181.54c-3,.2-2.63,4.79.32,4.59S242.2,181.33,239.24,181.54Z" transform="translate(-161.06 -157.13)"/><path class="a" d="M243.24,190.49a1.53,1.53,0,0,1,3.06.06A1.53,1.53,0,0,1,243.24,190.49Z" transform="translate(-161.06 -157.13)"/><path class="a" d="M244.08,177.59a1.53,1.53,0,0,1-2.62,1.57A1.53,1.53,0,0,1,244.08,177.59Z" transform="translate(-161.06 -157.13)"/><path class="a" d="M248.4,176.56a1.53,1.53,0,0,0,3.06,0A1.53,1.53,0,0,0,248.4,176.56Z" transform="translate(-161.06 -157.13)"/><path class="a" d="M230.22,240.15a1.53,1.53,0,0,0,3,.74A1.53,1.53,0,0,0,230.22,240.15Z" transform="translate(-161.06 -157.13)"/><path class="a" d="M224.08,243.52c-.52-2.91,4-3.72,4.52-.8S224.59,246.44,224.08,243.52Z" transform="translate(-161.06 -157.13)"/><path class="a" d="M235.43,237.55a1.53,1.53,0,0,0-2.12-2.2A1.53,1.53,0,0,0,235.43,237.55Z" transform="translate(-161.06 -157.13)"/><path class="a" d="M182.56,184.71a1.53,1.53,0,0,1-.64-3A1.53,1.53,0,0,1,182.56,184.71Z" transform="translate(-161.06 -157.13)"/><path class="a" d="M186.31,174.36a1.53,1.53,0,0,0,2.47,1.8A1.53,1.53,0,0,0,186.31,174.36Z" transform="translate(-161.06 -157.13)"/><path class="a" d="M197.34,199.92c2.76-1.06,1.12-5.36-1.65-4.29S194.57,201,197.34,199.92Z" transform="translate(-161.06 -157.13)"/><path class="a" d="M172.66,191a1.53,1.53,0,0,0-3,.53A1.53,1.53,0,0,0,172.66,191Z" transform="translate(-161.06 -157.13)"/><path class="a" d="M172,198.42a1.53,1.53,0,0,1,2.51-1.75A1.53,1.53,0,0,1,172,198.42Z" transform="translate(-161.06 -157.13)"/><path class="a" d="M277.63,192a1.53,1.53,0,0,0-2.82-1.2A1.53,1.53,0,0,0,277.63,192Z" transform="translate(-161.06 -157.13)"/><path class="a" d="M279.27,206.2a1.53,1.53,0,0,1-1.53-2.65A1.53,1.53,0,0,1,279.27,206.2Z" transform="translate(-161.06 -157.13)"/><path class="a" d="M270.45,195.75c2.43-1.7,5.07,2.06,2.64,3.76S268,197.45,270.45,195.75Z" transform="translate(-161.06 -157.13)"/><path class="a" d="M208,221.11a1.53,1.53,0,0,1,1.76,2.51A1.53,1.53,0,0,1,208,221.11Z" transform="translate(-161.06 -157.13)"/><path class="a" d="M220.38,231.66a1.53,1.53,0,0,1-2,2.31A1.53,1.53,0,0,1,220.38,231.66Z" transform="translate(-161.06 -157.13)"/><path class="a" d="M211.56,188.18c-.48,3.93,5.61,4.68,6.1.75S212,184.26,211.56,188.18Z" transform="translate(-161.06 -157.13)"/><path class="a" d="M219.35,172.46c1.9-2.26,5.43.69,3.52,3S217.44,174.73,219.35,172.46Z" transform="translate(-161.06 -157.13)"/><path class="a" d="M212.49,181.88a1.52,1.52,0,0,0-2-2.3A1.52,1.52,0,0,0,212.49,181.88Z" transform="translate(-161.06 -157.13)"/><path class="a" d="M228.09,177.8c3.31,2.15,0,7.3-3.35,5.15S224.77,175.64,228.09,177.8Z" transform="translate(-161.06 -157.13)"/><path class="a" d="M210.58,174.43c1.11-2.74,5.37-1,4.26,1.72S209.47,177.18,210.58,174.43Z" transform="translate(-161.06 -157.13)"/><path class="a" d="M220,216.21a1.53,1.53,0,0,0-1.24-2.79A1.53,1.53,0,0,0,220,216.21Z" transform="translate(-161.06 -157.13)"/><path class="a" d="M223.53,203.92a1.53,1.53,0,0,1-2.08-2.23A1.53,1.53,0,0,1,223.53,203.92Z" transform="translate(-161.06 -157.13)"/><path class="a" d="M180,221.85c1.41-3.69-4.32-5.9-5.74-2.2S178.55,225.54,180,221.85Z" transform="translate(-161.06 -157.13)"/><path class="a" d="M274,167.78a1.53,1.53,0,0,0,3.05-.27A1.53,1.53,0,0,0,274,167.78Z" transform="translate(-161.06 -157.13)"/><path class="a" d="M274.25,175.7c-2.77-1.06-1.12-5.36,1.64-4.3S277,176.76,274.25,175.7Z" transform="translate(-161.06 -157.13)"/><path class="a" d="M282.64,173.48a1.53,1.53,0,0,0,3.05.16A1.53,1.53,0,0,0,282.64,173.48Z" transform="translate(-161.06 -157.13)"/><path class="a" d="M202.28,243.28a1.53,1.53,0,0,0,1.62-2.6A1.53,1.53,0,0,0,202.28,243.28Z" transform="translate(-161.06 -157.13)"/><path class="a" d="M208.38,231.8a1.53,1.53,0,0,0-3,.47A1.53,1.53,0,0,0,208.38,231.8Z" transform="translate(-161.06 -157.13)"/><path class="a" d="M289.75,199.42a1.53,1.53,0,0,1-3-.48A1.53,1.53,0,0,1,289.75,199.42Z" transform="translate(-161.06 -157.13)"/><path class="a" d="M297.15,195.89c1.16-3.78-4.71-5.58-5.87-1.8S296,199.67,297.15,195.89Z" transform="translate(-161.06 -157.13)"/><path class="a" d="M291.27,213.41c-1.7,2.43-5.47-.21-3.77-2.64S293,211,291.27,213.41Z" transform="translate(-161.06 -157.13)"/><path class="a" d="M234.71,219.74c1.34,2.64-2.76,4.73-4.1,2.09S233.36,217.1,234.71,219.74Z" transform="translate(-161.06 -157.13)"/><path class="a" d="M238.71,214.82a1.53,1.53,0,0,0,2.31,2A1.53,1.53,0,0,0,238.71,214.82Z" transform="translate(-161.06 -157.13)"/><path class="a" d="M237.61,205.33a1.53,1.53,0,0,1,1.34,2.75A1.53,1.53,0,0,1,237.61,205.33Z" transform="translate(-161.06 -157.13)"/><path class="a" d="M274,228.37a1.53,1.53,0,0,0,2.75,1.34A1.53,1.53,0,0,0,274,228.37Z" transform="translate(-161.06 -157.13)"/><path class="a" d="M281.07,218.33a1.53,1.53,0,0,0-3.06-.11A1.53,1.53,0,0,0,281.07,218.33Z" transform="translate(-161.06 -157.13)"/><path class="a" d="M286.24,218.83a1.53,1.53,0,0,0,1.75,2.5A1.53,1.53,0,0,0,286.24,218.83Z" transform="translate(-161.06 -157.13)"/><path class="a" d="M162.7,176.27a1.53,1.53,0,0,0-.32,3A1.53,1.53,0,0,0,162.7,176.27Z" transform="translate(-161.06 -157.13)"/><path class="a" d="M166.64,189.26a1.53,1.53,0,0,1-3.06-.06A1.53,1.53,0,0,1,166.64,189.26Z" transform="translate(-161.06 -157.13)"/><path class="a" d="M167.29,181.41a1.53,1.53,0,0,1-1.44,2.7A1.53,1.53,0,0,1,167.29,181.41Z" transform="translate(-161.06 -157.13)"/><path class="a" d="M249.75,159.53a1.53,1.53,0,0,0,2.87,1A1.53,1.53,0,0,0,249.75,159.53Z" transform="translate(-161.06 -157.13)"/><path class="a" d="M254.91,171.7a1.53,1.53,0,0,0-2.72-1.38A1.53,1.53,0,0,0,254.91,171.7Z" transform="translate(-161.06 -157.13)"/><path class="a" d="M263.32,164.86a1.53,1.53,0,0,1,2.65-1.53A1.53,1.53,0,0,1,263.32,164.86Z" transform="translate(-161.06 -157.13)"/><path class="a" d="M188.09,237.15a1.53,1.53,0,0,1,1.66,2.57A1.53,1.53,0,0,1,188.09,237.15Z" transform="translate(-161.06 -157.13)"/><path class="a" d="M194.92,233.53c2.23-1.94,5.25,1.53,3,3.47S192.68,235.48,194.92,233.53Z" transform="translate(-161.06 -157.13)"/><path class="a" d="M200,246.63a1.53,1.53,0,0,0-3,.53A1.53,1.53,0,0,0,200,246.63Z" transform="translate(-161.06 -157.13)"/><path class="a" d="M192.35,168.55c3.24-2.26-.28-7.3-3.52-5S189.11,170.82,192.35,168.55Z" transform="translate(-161.06 -157.13)"/><path class="a" d="M230.28,206c2.16-2-1-5.39-3.14-3.37S228.11,208,230.28,206Z" transform="translate(-161.06 -157.13)"/><path class="a" d="M240.59,193.45c3.95,3-.67,9.12-4.62,6.14S236.63,190.47,240.59,193.45Z" transform="translate(-161.06 -157.13)"/><path class="a" d="M227,191.86c2.3-1.87-.59-5.44-2.89-3.58S224.71,193.72,227,191.86Z" transform="translate(-161.06 -157.13)"/><path class="a" d="M222.53,227.41a1.53,1.53,0,0,0-.38-3A1.53,1.53,0,0,0,222.53,227.41Z" transform="translate(-161.06 -157.13)"/><path class="a" d="M223.39,217.25c-1.44-2.59,2.58-4.82,4-2.23S224.82,219.85,223.39,217.25Z" transform="translate(-161.06 -157.13)"/><path class="a" d="M227.26,221.14a1.53,1.53,0,0,0-2.31,2A1.53,1.53,0,0,0,227.26,221.14Z" transform="translate(-161.06 -157.13)"/><path class="a" d="M252.41,260.25a1.53,1.53,0,0,0,.38,3A1.53,1.53,0,0,0,252.41,260.25Z" transform="translate(-161.06 -157.13)"/><path class="a" d="M253.81,255c-.77-2.86-5.21-1.67-4.44,1.19S254.58,257.84,253.81,255Z" transform="translate(-161.06 -157.13)"/><path class="a" d="M246.78,257.58a1.53,1.53,0,0,1-3.06,0A1.53,1.53,0,0,1,246.78,257.58Z" transform="translate(-161.06 -157.13)"/><path class="a" d="M267.83,235.49a1.53,1.53,0,0,0,3.05-.05A1.53,1.53,0,0,0,267.83,235.49Z" transform="translate(-161.06 -157.13)"/><path class="a" d="M274.9,244.59a1.53,1.53,0,0,0-3-.27A1.53,1.53,0,0,0,274.9,244.59Z" transform="translate(-161.06 -157.13)"/><path class="a" d="M266.5,243.08a1.53,1.53,0,0,0-2.35,2A1.53,1.53,0,0,0,266.5,243.08Z" transform="translate(-161.06 -157.13)"/><path class="a" d="M243.44,160a1.53,1.53,0,0,0,2.9-.95A1.53,1.53,0,0,0,243.44,160Z" transform="translate(-161.06 -157.13)"/><path class="a" d="M239.63,168.49c-2.24,1.94.78,5.42,3,3.47S241.86,166.55,239.63,168.49Z" transform="translate(-161.06 -157.13)"/><path class="a" d="M247.66,162.77c3.94.21,3.63,6.34-.32,6.13S243.71,162.56,247.66,162.77Z" transform="translate(-161.06 -157.13)"/><path class="a" d="M168.34,171.27c1.82-2.33,5.45.5,3.62,2.83S166.51,173.61,168.34,171.27Z" transform="translate(-161.06 -157.13)"/><path class="a" d="M183.31,169.87a1.53,1.53,0,0,0-1.57-2.62A1.53,1.53,0,0,0,183.31,169.87Z" transform="translate(-161.06 -157.13)"/><path class="a" d="M205.79,205.16a1.53,1.53,0,0,1,3.06.16A1.53,1.53,0,0,1,205.79,205.16Z" transform="translate(-161.06 -157.13)"/><path class="a" d="M217.81,199.73c1.52,2.54-2.42,4.91-3.94,2.37S216.28,197.19,217.81,199.73Z" transform="translate(-161.06 -157.13)"/><path class="a" d="M210.75,208.76a1.53,1.53,0,0,1,.74-3A1.53,1.53,0,0,1,210.75,208.76Z" transform="translate(-161.06 -157.13)"/><path class="a" d="M200.43,211.81a1.53,1.53,0,0,1,1.62-2.6A1.53,1.53,0,0,1,200.43,211.81Z" transform="translate(-161.06 -157.13)"/><path class="a" d="M192.24,210a1.53,1.53,0,0,1,2.2-2.12A1.53,1.53,0,0,1,192.24,210Z" transform="translate(-161.06 -157.13)"/><path class="a" d="M188.66,216.43a1.53,1.53,0,0,0,2.7-1.44A1.53,1.53,0,0,0,188.66,216.43Z" transform="translate(-161.06 -157.13)"/><path class="a" d="M201.56,216.67c-1.16-2.73,3.08-4.53,4.23-1.8S202.72,219.4,201.56,216.67Z" transform="translate(-161.06 -157.13)"/><path class="a" d="M192.76,218.37a1.53,1.53,0,0,1,0,3.06A1.53,1.53,0,0,1,192.76,218.37Z" transform="translate(-161.06 -157.13)"/><path class="a" d="M279.05,245.34a1.53,1.53,0,0,1,2.44-1.84A1.53,1.53,0,0,1,279.05,245.34Z" transform="translate(-161.06 -157.13)"/><path class="a" d="M275.78,242.16a1.53,1.53,0,0,0,1.89-2.41A1.53,1.53,0,0,0,275.78,242.16Z" transform="translate(-161.06 -157.13)"/><path class="a" d="M275.89,237.64c-3,.05-3.05-4.55-.09-4.6S278.85,237.59,275.89,237.64Z" transform="translate(-161.06 -157.13)"/><path class="a" d="M274,216.22a1.53,1.53,0,0,0-2.88,1.05A1.53,1.53,0,0,0,274,216.22Z" transform="translate(-161.06 -157.13)"/><path class="a" d="M262.66,207.53a1.53,1.53,0,0,0-2.91-.94A1.53,1.53,0,0,0,262.66,207.53Z" transform="translate(-161.06 -157.13)"/><path class="a" d="M261.16,211.58a1.53,1.53,0,0,1-2.77,1.29A1.53,1.53,0,0,1,261.16,211.58Z" transform="translate(-161.06 -157.13)"/><path class="a" d="M270.34,206.1c2.39,1.74,5.1-2,2.7-3.72S267.94,204.35,270.34,206.1Z" transform="translate(-161.06 -157.13)"/><path class="a" d="M275,214a1.53,1.53,0,0,0-.74-3A1.53,1.53,0,0,0,275,214Z" transform="translate(-161.06 -157.13)"/><path class="a" d="M264.05,170.73a1.53,1.53,0,0,0-2-2.28A1.53,1.53,0,0,0,264.05,170.73Z" transform="translate(-161.06 -157.13)"/><path class="a" d="M257.45,184.63c-1.74-2.39,2-5.1,3.72-2.7S259.2,187,257.45,184.63Z" transform="translate(-161.06 -157.13)"/><path class="a" d="M259,175.49a1.53,1.53,0,0,1-2.51-1.76A1.53,1.53,0,0,1,259,175.49Z" transform="translate(-161.06 -157.13)"/><path class="a" d="M271.52,170.9c1.57-2.51-2.33-5-3.9-2.44S270,173.41,271.52,170.9Z" transform="translate(-161.06 -157.13)"/><path class="a" d="M271.92,177.82a1.53,1.53,0,0,1,0,3.06A1.53,1.53,0,0,1,271.92,177.82Z" transform="translate(-161.06 -157.13)"/><path class="a" d="M263.73,263.3a1.53,1.53,0,0,1-2.31,2A1.53,1.53,0,0,1,263.73,263.3Z" transform="translate(-161.06 -157.13)"/><path class="a" d="M249.59,264.05a1.53,1.53,0,0,1-.06,3.05A1.53,1.53,0,0,1,249.59,264.05Z" transform="translate(-161.06 -157.13)"/><path class="a" d="M256.79,261.26c-1.15-2.72,3.08-4.52,4.24-1.79S258,264,256.79,261.26Z" transform="translate(-161.06 -157.13)"/><path class="a" d="M246.54,235.37c1,2.8,5.31,1.31,4.35-1.5S245.57,232.57,246.54,235.37Z" transform="translate(-161.06 -157.13)"/><path class="a" d="M192.31,224.48c1.15,3.77-4.72,5.58-5.88,1.79S191.15,220.69,192.31,224.48Z" transform="translate(-161.06 -157.13)"/><path class="a" d="M241.61,248.55c1.06-2.77-3.23-4.42-4.29-1.65S240.55,251.31,241.61,248.55Z" transform="translate(-161.06 -157.13)"/><path class="a" d="M181.39,198.05a1.53,1.53,0,0,0,2.09,2.24A1.53,1.53,0,0,0,181.39,198.05Z" transform="translate(-161.06 -157.13)"/><path class="a" d="M232.63,277c1-3.84,6.92-2.36,6,1.48S231.67,280.88,232.63,277Z" transform="translate(-161.06 -157.13)"/><path class="a" d="M281.51,189.32a1.53,1.53,0,0,0-2.41-1.88A1.53,1.53,0,0,0,281.51,189.32Z" transform="translate(-161.06 -157.13)"/><path class="a" d="M195.74,253.87c2.94-.26,2.55-4.84-.41-4.59S192.78,254.13,195.74,253.87Z" transform="translate(-161.06 -157.13)"/><path class="a" d="M219.43,163c2.54-3-2.16-7-4.71-3.95S216.88,166.06,219.43,163Z" transform="translate(-161.06 -157.13)"/><path class="a" d="M265.61,185.35c3.9-3,8.63,3,4.73,6.06S261.71,188.4,265.61,185.35Z" transform="translate(-161.06 -157.13)"/><path class="a" d="M242.58,207.25c-.52,4.91,7.12,5.72,7.64.8S243.1,202.32,242.58,207.25Z" transform="translate(-161.06 -157.13)"/><path class="a" d="M214.9,237c4.81,1.12,3.09,8.6-1.73,7.49S210.07,235.93,214.9,237Z" transform="translate(-161.06 -157.13)"/><path class="a" d="M259.57,253.67c-2.7-2.89,1.79-7.08,4.49-4.19S262.27,256.56,259.57,253.67Z" transform="translate(-161.06 -157.13)"/><path class="a" d="M184.51,228.85c-1.48-3.67-7.18-1.37-5.69,2.3S186,232.52,184.51,228.85Z" transform="translate(-161.06 -157.13)"/><path class="a" d="M206.7,257.69c1.91-3.46-3.45-6.44-5.37-3S204.78,261.15,206.7,257.69Z" transform="translate(-161.06 -157.13)"/><path class="a" d="M233,263.16c-2,4.51-9,1.4-7-3.13S235,258.63,233,263.16Z" transform="translate(-161.06 -157.13)"/><path class="a" d="M270.49,260c4.94-.26,4.54-7.94-.4-7.68S265.55,260.29,270.49,260Z" transform="translate(-161.06 -157.13)"/><path class="a" d="M205.51,226.49c.55,3.91-5.53,4.77-6.08.85S205,222.57,205.51,226.49Z" transform="translate(-161.06 -157.13)"/><path class="a" d="M260.74,203.92a1.53,1.53,0,0,0-2.48-1.8A1.53,1.53,0,0,0,260.74,203.92Z" transform="translate(-161.06 -157.13)"/><path class="a" d="M246.3,270.36c-4.59-1.85-7.47,5.27-2.88,7.13S250.89,272.22,246.3,270.36Z" transform="translate(-161.06 -157.13)"/><path class="a" d="M220,260.85c2.94-.31,3.42,4.26.48,4.57S217,261.16,220,260.85Z" transform="translate(-161.06 -157.13)"/><path class="a" d="M249.93,242.36c2.93-.41,3.58,4.14.64,4.56S247,242.77,249.93,242.36Z" transform="translate(-161.06 -157.13)"/><path class="a" d="M174.22,181.47c3.94.34,3.41,6.46-.53,6.12S170.28,181.12,174.22,181.47Z" transform="translate(-161.06 -157.13)"/><path class="a" d="M241.76,229.36c-.17,4.94-7.85,4.68-7.68-.27S241.93,224.41,241.76,229.36Z" transform="translate(-161.06 -157.13)"/><path class="a" d="M188.21,199.87c3.07-2.49,6.94,2.28,3.86,4.77S185.13,202.36,188.21,199.87Z" transform="translate(-161.06 -157.13)"/><path class="a" d="M297.67,175.65c-3.5-3.5-8.94,1.93-5.43,5.43S301.17,179.15,297.67,175.65Z" transform="translate(-161.06 -157.13)"/><path class="a" d="M222.67,165c-1.36,4.75,6,6.88,7.38,2.12S224,160.21,222.67,165Z" transform="translate(-161.06 -157.13)"/><path class="a" d="M214.7,219.87c2.83-.87,1.49-5.27-1.34-4.4S211.87,220.73,214.7,219.87Z" transform="translate(-161.06 -157.13)"/><path class="a" d="M205.63,186.06c3-.11,2.81-4.7-.16-4.6S202.67,186.16,205.63,186.06Z" transform="translate(-161.06 -157.13)"/><path class="a" d="M255.51,224.59c-4.94-.17-4.68-7.85.27-7.68S260.46,224.76,255.51,224.59Z" transform="translate(-161.06 -157.13)"/><path class="a" d="M180.72,208.65c-3.28-2.21.15-7.3,3.43-5.09S184,210.86,180.72,208.65Z" transform="translate(-161.06 -157.13)"/><path class="a" d="M169.61,206.42c1.39,2.61,5.46.45,4.06-2.16S168.22,203.8,169.61,206.42Z" transform="translate(-161.06 -157.13)"/><path class="a" d="M220.79,256.87c-2.84,2.74-7.12-1.67-4.27-4.42S223.63,254.12,220.79,256.87Z" transform="translate(-161.06 -157.13)"/><path class="a" d="M207.3,263.93c-3-.26-3.36,4.32-.41,4.58S210.25,264.19,207.3,263.93Z" transform="translate(-161.06 -157.13)"/><path class="a" d="M200.92,178.47c.13-3.95-6-4.17-6.14-.21S200.78,182.42,200.92,178.47Z" transform="translate(-161.06 -157.13)"/><path class="a" d="M211.29,193.31c2.59,1.43.37,5.46-2.23,4S208.7,191.87,211.29,193.31Z" transform="translate(-161.06 -157.13)"/><path class="a" d="M217.75,269.38c-3.86-.82-5.15,5.18-1.27,6S221.62,270.2,217.75,269.38Z" transform="translate(-161.06 -157.13)"/><path class="a" d="M278.83,211.26c-.69-3.89,5.36-5,6-1.06S279.51,215.16,278.83,211.26Z" transform="translate(-161.06 -157.13)"/><path class="a" d="M258.89,238.65c-1.22-3.76,4.62-5.66,5.84-1.9S260.12,242.42,258.89,238.65Z" transform="translate(-161.06 -157.13)"/><path class="a" d="M265,223.62c.71,2.87,5.18,1.76,4.46-1.12S264.26,220.74,265,223.62Z" transform="translate(-161.06 -157.13)"/><path class="a" d="M289,191.32c-4.78,1.28-6.77-6.14-2-7.42S293.79,190,289,191.32Z" transform="translate(-161.06 -157.13)"/><path class="a" d="M248.54,200.17c-3.28-2.21.15-7.3,3.43-5.09S251.82,202.39,248.54,200.17Z" transform="translate(-161.06 -157.13)"/><path class="a" d="M244.27,184.88c1.44,4.73,8.79,2.49,7.34-2.25S242.82,180.14,244.27,184.88Z" transform="translate(-161.06 -157.13)"/><path class="a" d="M230.61,233c2.09,4.48-4.87,7.73-7,3.24S228.52,228.51,230.61,233Z" transform="translate(-161.06 -157.13)"/><path class="a" d="M178.68,179.61c-4.58-1.85-1.71-9,2.88-7.12S183.27,181.47,178.68,179.61Z" transform="translate(-161.06 -157.13)"/><path class="a" d="M199.68,206.6c3.61,1.61,6.11-4,2.5-5.61S196.07,205,199.68,206.6Z" transform="translate(-161.06 -157.13)"/><path class="a" d="M169.62,197.71c-2.09,3.36-7.3.11-5.2-3.25S171.72,194.36,169.62,197.71Z" transform="translate(-161.06 -157.13)"/><path class="a" d="M284.1,197c.78,4.88-6.81,6.09-7.59,1.2S283.33,192.14,284.1,197Z" transform="translate(-161.06 -157.13)"/><path class="a" d="M216.24,223.35c4.58,1.85,1.71,9-2.88,7.13S211.65,221.5,216.24,223.35Z" transform="translate(-161.06 -157.13)"/><path class="a" d="M220.43,182.39c2.21-3.27-2.88-6.71-5.09-3.43S218.22,185.67,220.43,182.39Z" transform="translate(-161.06 -157.13)"/><path class="a" d="M219.1,205.36c-3.92.42-3.29,6.53.65,6.11S223,205,219.1,205.36Z" transform="translate(-161.06 -157.13)"/><path class="a" d="M281.21,167.77c-2.73-1.16-4.53,3.07-1.8,4.23S283.94,168.93,281.21,167.77Z" transform="translate(-161.06 -157.13)"/><path class="a" d="M206.92,237.79c-1.11,2.75-5.38,1-4.27-1.72S208,235.05,206.92,237.79Z" transform="translate(-161.06 -157.13)"/><path class="a" d="M294.66,200.93c4.67,1.61,2.18,8.88-2.5,7.27S290,199.32,294.66,200.93Z" transform="translate(-161.06 -157.13)"/><path class="a" d="M236.52,214.36c2.69-4.14-3.75-8.33-6.44-4.18S233.82,218.52,236.52,214.36Z" transform="translate(-161.06 -157.13)"/><path class="a" d="M279,222.85c3.24-3.73,9.05,1.31,5.8,5S275.7,226.59,279,222.85Z" transform="translate(-161.06 -157.13)"/><path class="a" d="M254.25,162c3.17-3.79,9.06,1.15,5.88,4.94S251.06,165.81,254.25,162Z" transform="translate(-161.06 -157.13)"/><path class="a" d="M197,241.9c.55,3.91-5.53,4.77-6.08.86S196.48,238,197,241.9Z" transform="translate(-161.06 -157.13)"/><path class="a" d="M230.43,194.34c3.24,2.27-.28,7.3-3.52,5S227.19,192.07,230.43,194.34Z" transform="translate(-161.06 -157.13)"/><path class="a" d="M220.07,218.63c2.72-1.15,4.52,3.08,1.8,4.24S217.34,219.79,220.07,218.63Z" transform="translate(-161.06 -157.13)"/><path class="a" d="M249.52,261.35a1.53,1.53,0,0,1-1.62-2.59A1.53,1.53,0,0,1,249.52,261.35Z" transform="translate(-161.06 -157.13)"/><path class="a" d="M270.63,238.78c-2.58-1.44-4.82,2.58-2.23,4S273.23,240.21,270.63,238.78Z" transform="translate(-161.06 -157.13)"/><path class="a" d="M240.51,160.06c-3.71-1.35-5.82,4.42-2.1,5.77S244.23,161.42,240.51,160.06Z" transform="translate(-161.06 -157.13)"/><path class="a" d="M209.87,204.1a1.53,1.53,0,0,1,2.16-2.16A1.53,1.53,0,0,1,209.87,204.1Z" transform="translate(-161.06 -157.13)"/><path class="a" d="M199.38,214.58c0,3.95-6.14,4-6.14,0S199.38,210.63,199.38,214.58Z" transform="translate(-161.06 -157.13)"/><path class="a" d="M285.2,240.15c-2.16,3.31-7.31,0-5.15-3.35S287.35,236.83,285.2,240.15Z" transform="translate(-161.06 -157.13)"/><path class="a" d="M266.94,207.67c4.93-.35,5.47,7.32.54,7.66S262,208,266.94,207.67Z" transform="translate(-161.06 -157.13)"/><path class="a" d="M261.33,178.26c1.86,4.58,9,1.71,7.13-2.88S259.48,173.67,261.33,178.26Z" transform="translate(-161.06 -157.13)"/><path class="a" d="M253,270.21c-2.17-4.44,4.73-7.81,6.9-3.36S255.14,274.66,253,270.21Z" transform="translate(-161.06 -157.13)"/><text class="b" transform="translate(31.53 78.64)">UX</text></svg>