<svg id="Layer_1" data-name="Layer 1" xmlns="http://www.w3.org/2000/svg" viewBox="0 0 458.63 457.65"><defs><style>.cls-1,.cls-5{fill:#fff;}.cls-1,.cls-5,.cls-6{stroke:#231f20;stroke-miterlimit:10;}.cls-1,.cls-6{stroke-width:3px;}.cls-2,.cls-3{font-size:16px;font-family:IBMPlexSans-Medium, IBM Plex Sans;font-weight:500;}.cls-2{fill:#844d5d;}.cls-3{fill:#593741;}.cls-4{letter-spacing:-0.02em;}.cls-5{stroke-width:2px;}.cls-6{fill:none;}</style></defs><title>venn-diagram-empty</title><path class="cls-1" d="M462.73,157.53a151.55,151.55,0,0,0-303.1,0,153.44,153.44,0,0,0,1.2,19.17A151.59,151.59,0,0,1,385,289.91,151.52,151.52,0,0,0,462.73,157.53Z" transform="translate(-5.6 -4.48)"/><path class="cls-1" d="M160.83,176.7A151.56,151.56,0,1,0,386.19,309.08a153.56,153.56,0,0,0-1.2-19.17A151.59,151.59,0,0,1,160.83,176.7Z" transform="translate(-5.6 -4.48)"/><text class="cls-2" transform="translate(32.26 142.92)">USER NEEDS</text><path d="M344.65,136.23h5a2.72,2.72,0,0,1,3,2.88,2.1,2.1,0,0,1-1.93,2.37v.09a2.46,2.46,0,0,1,2.33,2.61,3,3,0,0,1-2.88,3.22h-5.44Zm1.81,4.72h2.8a1.25,1.25,0,0,0,1.41-1.33v-.51a1.25,1.25,0,0,0-1.41-1.33h-2.8Zm0,4.9h3.1a1.35,1.35,0,0,0,1.51-1.43v-.54a1.35,1.35,0,0,0-1.51-1.43h-3.1Z" transform="translate(-5.6 -4.48)"/><path d="M356.91,136.23v6.88c0,1.89.65,2.86,2.4,2.86s2.4-1,2.4-2.86v-6.88h1.78v6.59c0,3.27-1.12,4.77-4.18,4.77s-4.18-1.5-4.18-4.77v-6.59Z" transform="translate(-5.6 -4.48)"/><path d="M365.43,145.7l1.25-1.17a3.6,3.6,0,0,0,2.93,1.46c1.43,0,2.16-.7,2.16-1.78,0-.86-.45-1.36-1.74-1.61l-1-.18c-2.17-.4-3.27-1.41-3.27-3.18,0-2,1.54-3.21,3.9-3.21a4.49,4.49,0,0,1,3.78,1.72l-1.26,1.12a3.08,3.08,0,0,0-2.61-1.24c-1.28,0-2,.53-2,1.51s.58,1.33,1.78,1.57l1,.21c2.23.43,3.23,1.42,3.23,3.2,0,2.08-1.48,3.47-4.05,3.47A4.94,4.94,0,0,1,365.43,145.7Z" transform="translate(-5.6 -4.48)"/><path d="M375.26,147.4v-1.47h1.52V137.7h-1.52v-1.47h4.86v1.47h-1.53v8.23h1.53v1.47Z" transform="translate(-5.6 -4.48)"/><path d="M385.4,141.22l-1.23-2.37h-.05v8.55h-1.73V136.23h2l3.65,6.17,1.23,2.37h0v-8.54h1.73V147.4h-2Z" transform="translate(-5.6 -4.48)"/><path d="M393.82,147.4V136.23H401v1.6h-5.34v3.1h4.85v1.6h-4.85v3.27H401v1.6Z" transform="translate(-5.6 -4.48)"/><path d="M402.57,145.7l1.25-1.17a3.58,3.58,0,0,0,2.93,1.46c1.42,0,2.16-.7,2.16-1.78,0-.86-.45-1.36-1.75-1.61l-1-.18c-2.16-.4-3.26-1.41-3.26-3.18,0-2,1.53-3.21,3.9-3.21a4.51,4.51,0,0,1,3.78,1.72l-1.27,1.12a3.05,3.05,0,0,0-2.61-1.24c-1.28,0-2,.53-2,1.51s.57,1.33,1.77,1.57l1,.21c2.22.43,3.23,1.42,3.23,3.2,0,2.08-1.49,3.47-4.05,3.47A4.94,4.94,0,0,1,402.57,145.7Z" transform="translate(-5.6 -4.48)"/><path d="M412,145.7l1.24-1.17a3.61,3.61,0,0,0,2.93,1.46c1.43,0,2.16-.7,2.16-1.78,0-.86-.45-1.36-1.74-1.61l-1-.18c-2.16-.4-3.27-1.41-3.27-3.18,0-2,1.54-3.21,3.91-3.21a4.48,4.48,0,0,1,3.77,1.72l-1.26,1.12a3.08,3.08,0,0,0-2.61-1.24c-1.28,0-2,.53-2,1.51s.58,1.33,1.78,1.57l1,.21c2.23.43,3.24,1.42,3.24,3.2,0,2.08-1.49,3.47-4.05,3.47A4.91,4.91,0,0,1,412,145.7Z" transform="translate(-5.6 -4.48)"/><path d="M351.84,164.9h-.07c-.22,1.08-1.31,1.89-3,1.89-2.65,0-4.61-2-4.61-5.78s2-5.78,4.89-5.78a4.35,4.35,0,0,1,4.16,2.52l-1.48.86a2.74,2.74,0,0,0-2.68-1.76c-1.76,0-3,1.2-3,3.25v1.83c0,2,1.19,3.24,3,3.24,1.4,0,2.64-.72,2.64-2.11v-.86h-2.31v-1.56h4.05v6h-1.58Z" transform="translate(-5.6 -4.48)"/><path d="M355.43,161c0-3.76,1.91-5.78,4.82-5.78s4.82,2,4.82,5.78-1.9,5.78-4.82,5.78S355.43,164.77,355.43,161Zm7.7.88v-1.76c0-2-1.15-3.28-2.88-3.28s-2.88,1.25-2.88,3.28v1.76c0,2,1.15,3.28,2.88,3.28S363.13,163.93,363.13,161.89Z" transform="translate(-5.6 -4.48)"/><path d="M374,166.6l-1-3h-4.18l-1,3H366l3.81-11.17H372l3.81,11.17Zm-3-9.51h-.08L369.21,162h3.3Z" transform="translate(-5.6 -4.48)"/><path d="M377.58,166.6V155.43h1.81V165h4.54v1.6Z" transform="translate(-5.6 -4.48)"/><path d="M385.05,164.9l1.25-1.17a3.58,3.58,0,0,0,2.93,1.46c1.42,0,2.16-.7,2.16-1.78,0-.86-.45-1.36-1.75-1.61l-1-.18c-2.16-.4-3.26-1.41-3.26-3.18,0-2,1.53-3.21,3.9-3.21a4.51,4.51,0,0,1,3.78,1.72l-1.27,1.12a3,3,0,0,0-2.6-1.24c-1.28,0-2,.53-2,1.51s.57,1.33,1.78,1.57l1,.21c2.22.43,3.23,1.42,3.23,3.2,0,2.08-1.49,3.47-4.05,3.47A4.94,4.94,0,0,1,385.05,164.9Z" transform="translate(-5.6 -4.48)"/><text class="cls-3" transform="translate(171.53 366.37)">VIS<tspan class="cls-4" x="26.27" y="0">U</tspan><tspan x="36.96" y="0">AL DESIGN</tspan></text><path class="cls-5" d="M206.05,193.28v26.06c0,6,2.19,8.95,7.67,8.95s7.67-3,7.67-8.95V193.28h9v25.08c0,12.55-4.51,18.15-16.68,18.15S197,230.91,197,218.36V193.28Z" transform="translate(-5.6 -4.48)"/><path class="cls-5" d="M249.45,213.8l-13-20.52h10.77l8.28,14.37h.19l8.4-14.37h10L261,214l13.82,21.8H264.13l-9.2-15.65h-.18l-8.95,15.65h-10Z" transform="translate(-5.6 -4.48)"/><path class="cls-1" d="M234.64,157.53A150.79,150.79,0,0,1,309,177,151.55,151.55,0,1,0,84.33,289.63,151.59,151.59,0,0,1,234.64,157.53Z" transform="translate(-5.6 -4.48)"/><path class="cls-1" d="M309,177A151.59,151.59,0,0,1,84.33,289.63a154.12,154.12,0,0,0-1.23,19.45A151.55,151.55,0,1,0,309,177Z" transform="translate(-5.6 -4.48)"/><path d="M40.94,136.23v6.88c0,1.89.66,2.86,2.4,2.86s2.41-1,2.41-2.86v-6.88h1.77v6.59c0,3.27-1.12,4.77-4.18,4.77s-4.17-1.5-4.17-4.77v-6.59Z" transform="translate(-5.6 -4.48)"/><path d="M49.47,145.7l1.25-1.17A3.58,3.58,0,0,0,53.65,146c1.42,0,2.16-.7,2.16-1.78,0-.86-.45-1.36-1.75-1.61l-1-.18c-2.16-.4-3.26-1.41-3.26-3.18,0-2,1.53-3.21,3.9-3.21a4.51,4.51,0,0,1,3.78,1.72l-1.27,1.12a3,3,0,0,0-2.6-1.24c-1.28,0-2,.53-2,1.51s.58,1.33,1.78,1.57l1,.21c2.22.43,3.23,1.42,3.23,3.2,0,2.08-1.49,3.47-4.05,3.47A4.94,4.94,0,0,1,49.47,145.7Z" transform="translate(-5.6 -4.48)"/><path d="M59.77,147.4V136.23h7.16v1.6H61.58v3.1h4.85v1.6H61.58v3.27h5.35v1.6Z" transform="translate(-5.6 -4.48)"/><path d="M71.07,147.4H69.26V136.23h4.82a3.06,3.06,0,0,1,3.23,3.36,2.94,2.94,0,0,1-2.17,3.1l2.41,4.71h-2l-2.24-4.51H71.07Zm2.88-6A1.3,1.3,0,0,0,75.41,140v-.77A1.3,1.3,0,0,0,74,137.81H71.07v3.55Z" transform="translate(-5.6 -4.48)"/><path d="M86.53,141.22l-1.23-2.37h0v8.55H83.52V136.23h2l3.65,6.17,1.23,2.37h0v-8.54h1.72V147.4h-2Z" transform="translate(-5.6 -4.48)"/><path d="M94.94,147.4V136.23h7.16v1.6H96.75v3.1h4.85v1.6H96.75v3.27h5.35v1.6Z" transform="translate(-5.6 -4.48)"/><path d="M104.43,147.4V136.23h7.16v1.6h-5.35v3.1h4.85v1.6h-4.85v3.27h5.35v1.6Z" transform="translate(-5.6 -4.48)"/><path d="M113.92,136.23h4c2.85,0,4.72,1.85,4.72,5.58s-1.87,5.59-4.72,5.59h-4Zm4,9.57c1.67,0,2.79-1.07,2.79-3.09v-1.79c0-2-1.12-3.09-2.79-3.09h-2.14v8Z" transform="translate(-5.6 -4.48)"/><path d="M124.11,145.7l1.25-1.17a3.58,3.58,0,0,0,2.93,1.46c1.42,0,2.16-.7,2.16-1.78,0-.86-.45-1.36-1.75-1.61l-1-.18c-2.16-.4-3.26-1.41-3.26-3.18,0-2,1.53-3.21,3.9-3.21a4.5,4.5,0,0,1,3.78,1.72l-1.27,1.12a3,3,0,0,0-2.6-1.24c-1.28,0-2,.53-2,1.51s.58,1.33,1.78,1.57l1,.21c2.22.43,3.23,1.42,3.23,3.2,0,2.08-1.49,3.47-4.05,3.47A4.94,4.94,0,0,1,124.11,145.7Z" transform="translate(-5.6 -4.48)"/><path d="M181.08,370.85l-3.66-11.17h1.87l1.78,5.52,1.07,3.89h.06l1.09-3.89,1.78-5.52h1.82l-3.71,11.17Z" transform="translate(-5.6 -4.48)"/><path d="M188.07,370.85v-1.47h1.52v-8.23h-1.52v-1.47h4.87v1.47H191.4v8.23h1.54v1.47Z" transform="translate(-5.6 -4.48)"/><path d="M194.47,369.15l1.25-1.16a3.59,3.59,0,0,0,2.93,1.45c1.42,0,2.16-.7,2.16-1.77,0-.87-.45-1.37-1.74-1.62l-1-.18c-2.16-.4-3.26-1.41-3.26-3.18,0-2,1.54-3.2,3.9-3.2a4.48,4.48,0,0,1,3.78,1.71l-1.26,1.12a3.07,3.07,0,0,0-2.61-1.23c-1.28,0-2,.52-2,1.5s.58,1.33,1.78,1.57l1,.21c2.23.43,3.23,1.42,3.23,3.2,0,2.08-1.48,3.47-4,3.47A4.91,4.91,0,0,1,194.47,369.15Z" transform="translate(-5.6 -4.48)"/><path d="M206.49,359.68v6.88c0,1.89.66,2.87,2.4,2.87s2.4-1,2.4-2.87v-6.88h1.78v6.59c0,3.27-1.12,4.77-4.18,4.77s-4.18-1.5-4.18-4.77v-6.59Z" transform="translate(-5.6 -4.48)"/><path d="M222.44,370.85l-1-3h-4.18l-1,3h-1.84l3.81-11.17h2.27l3.81,11.17Zm-3.05-9.51h-.08l-1.62,4.93H221Z" transform="translate(-5.6 -4.48)"/><path d="M226.06,370.85V359.68h1.81v9.57h4.54v1.6Z" transform="translate(-5.6 -4.48)"/><path d="M238,359.68h4c2.85,0,4.73,1.85,4.73,5.58s-1.88,5.59-4.73,5.59h-4Zm4,9.57c1.67,0,2.79-1.07,2.79-3.09v-1.79c0-2-1.12-3.09-2.79-3.09h-2.14v8Z" transform="translate(-5.6 -4.48)"/><path d="M249,370.85V359.68h7.15v1.6h-5.34v3.1h4.85V366h-4.85v3.27h5.34v1.6Z" transform="translate(-5.6 -4.48)"/><path d="M257.72,369.15,259,368a3.57,3.57,0,0,0,2.93,1.45c1.42,0,2.16-.7,2.16-1.77,0-.87-.45-1.37-1.75-1.62l-1-.18c-2.16-.4-3.26-1.41-3.26-3.18,0-2,1.53-3.2,3.9-3.2a4.51,4.51,0,0,1,3.78,1.71l-1.27,1.12a3,3,0,0,0-2.6-1.23c-1.28,0-2,.52-2,1.5s.58,1.33,1.78,1.57l1,.21c2.22.43,3.23,1.42,3.23,3.2,0,2.08-1.49,3.47-4.05,3.47A4.91,4.91,0,0,1,257.72,369.15Z" transform="translate(-5.6 -4.48)"/><path d="M267.54,370.85v-1.47h1.52v-8.23h-1.52v-1.47h4.87v1.47h-1.54v8.23h1.54v1.47Z" transform="translate(-5.6 -4.48)"/><path d="M281.87,369.15h-.07c-.22,1.08-1.31,1.89-3,1.89-2.65,0-4.61-2-4.61-5.78s2-5.77,4.89-5.77a4.34,4.34,0,0,1,4.16,2.51l-1.47.86a2.76,2.76,0,0,0-2.69-1.76c-1.76,0-2.95,1.2-2.95,3.25v1.83c0,2.05,1.19,3.25,2.95,3.25,1.41,0,2.64-.72,2.64-2.12v-.86H279.4V364.9h4.05v6h-1.58Z" transform="translate(-5.6 -4.48)"/><path d="M289,364.67l-1.23-2.37h-.05v8.55H286V359.68h2l3.65,6.18,1.23,2.37h.05v-8.55h1.73v11.17h-2Z" transform="translate(-5.6 -4.48)"/><path class="cls-6" d="M234.64,157.53A150.85,150.85,0,0,0,160.33,177a154.12,154.12,0,0,1-1.23-19.45A151.55,151.55,0,1,1,385,289.63,151.57,151.57,0,0,0,234.64,157.53Z" transform="translate(-5.6 -4.48)"/><path class="cls-6" d="M160.33,177A151.59,151.59,0,0,0,385,289.63,151.55,151.55,0,1,1,160.33,177Z" transform="translate(-5.6 -4.48)"/></svg>