<svg id="Layer_1" data-name="Layer 1" xmlns="http://www.w3.org/2000/svg" viewBox="0 0 500.9 499.83"><defs><style>.cls-1,.cls-5{fill:#fff;}.cls-1,.cls-5,.cls-6{stroke:#231f20;stroke-miterlimit:10;}.cls-1,.cls-6{stroke-width:3px;}.cls-2,.cls-3{font-size:17.48px;font-family:IBMPlexSans-Medium, IBM Plex Sans;font-weight:500;}.cls-2{fill:#844d5d;}.cls-3{fill:#593741;}.cls-4{letter-spacing:-0.02em;}.cls-5{stroke-width:2px;}.cls-6{fill:none;}</style></defs><title>Diagram</title><path class="cls-1" d="M499,167.2a165.61,165.61,0,1,0-329.9,21,165.65,165.65,0,0,1,245,123.7A165.53,165.53,0,0,0,499,167.2Z" transform="translate(0.45 -0.09)"/><path class="cls-1" d="M169.05,188.15a165.57,165.57,0,1,0,245,123.7,165.65,165.65,0,0,1-244.95-123.7Z" transform="translate(0.45 -0.09)"/><text class="cls-2" transform="translate(35.11 156.04)">USER NEEDS</text><path d="M369.92,143.91h5.41a3,3,0,0,1,3.25,3.15,2.3,2.3,0,0,1-2.12,2.59v.11a2.68,2.68,0,0,1,2.56,2.85,3.29,3.29,0,0,1-3.15,3.51h-5.95Zm2,5.16H375a1.37,1.37,0,0,0,1.54-1.45v-.56a1.37,1.37,0,0,0-1.54-1.45H371.9Zm0,5.36h3.39a1.47,1.47,0,0,0,1.65-1.56v-.6a1.47,1.47,0,0,0-1.65-1.55H371.9Z" transform="translate(0.45 -0.09)"/><path d="M383.31,143.91v7.53c0,2.06.72,3.13,2.63,3.13s2.62-1.07,2.62-3.13v-7.53h1.94v7.21c0,3.57-1.22,5.21-4.56,5.21s-4.57-1.64-4.57-5.21v-7.21Z" transform="translate(0.45 -0.09)"/><path d="M392.63,154.27,394,153a3.9,3.9,0,0,0,3.2,1.59c1.55,0,2.36-.77,2.36-1.94,0-.94-.49-1.48-1.91-1.76l-1.08-.2c-2.36-.43-3.57-1.54-3.57-3.48,0-2.17,1.68-3.5,4.27-3.5a5,5,0,0,1,4.13,1.88L400,146.8a3.34,3.34,0,0,0-2.85-1.35c-1.4,0-2.2.58-2.2,1.65s.63,1.45,1.94,1.71L398,149c2.43.47,3.53,1.56,3.53,3.5,0,2.27-1.63,3.79-4.43,3.79A5.4,5.4,0,0,1,392.63,154.27Z" transform="translate(0.45 -0.09)"/><path d="M403.37,156.12v-1.61H405v-9h-1.66v-1.61h5.32v1.61H407v9h1.68v1.61Z" transform="translate(0.45 -0.09)"/><path d="M414.45,149.37l-1.34-2.59h-.05v9.34h-1.89V143.91h2.2l4,6.76,1.35,2.58h.05v-9.34h1.89v12.21h-2.21Z" transform="translate(0.45 -0.09)"/><path d="M423.65,156.12V143.91h7.82v1.75h-5.84v3.4h5.3v1.75h-5.3v3.56h5.84v1.75Z" transform="translate(0.45 -0.09)"/><path d="M433.21,154.27l1.37-1.28a3.92,3.92,0,0,0,3.2,1.59c1.56,0,2.36-.77,2.36-1.94,0-.94-.49-1.48-1.91-1.76l-1.08-.2c-2.36-.43-3.57-1.54-3.57-3.48,0-2.17,1.68-3.5,4.27-3.5a4.93,4.93,0,0,1,4.13,1.88l-1.38,1.22a3.36,3.36,0,0,0-2.86-1.35c-1.39,0-2.2.58-2.2,1.65s.63,1.45,1.94,1.71l1.09.23c2.43.47,3.53,1.56,3.53,3.5,0,2.27-1.63,3.79-4.43,3.79A5.4,5.4,0,0,1,433.21,154.27Z" transform="translate(0.45 -0.09)"/><path d="M443.46,154.27l1.36-1.28a3.94,3.94,0,0,0,3.21,1.59c1.55,0,2.36-.77,2.36-1.94,0-.94-.49-1.48-1.91-1.76l-1.08-.2c-2.37-.43-3.57-1.54-3.57-3.48,0-2.17,1.68-3.5,4.27-3.5a4.91,4.91,0,0,1,4.12,1.88l-1.38,1.22a3.34,3.34,0,0,0-2.85-1.35c-1.4,0-2.2.58-2.2,1.65s.63,1.45,1.94,1.71l1.08.23c2.43.47,3.54,1.56,3.54,3.5,0,2.27-1.63,3.79-4.43,3.79A5.37,5.37,0,0,1,443.46,154.27Z" transform="translate(0.45 -0.09)"/><path d="M377.78,175.25h-.08c-.24,1.17-1.43,2.06-3.28,2.06-2.91,0-5-2.22-5-6.31s2.13-6.31,5.33-6.31a4.75,4.75,0,0,1,4.55,2.74l-1.61.95a3,3,0,0,0-2.94-1.93c-1.92,0-3.21,1.31-3.21,3.55v2c0,2.24,1.29,3.55,3.21,3.55,1.54,0,2.89-.79,2.89-2.31v-1h-2.52V170.6h4.43v6.5h-1.73Z" transform="translate(0.45 -0.09)"/><path d="M381.71,171c0-4.11,2.08-6.31,5.26-6.31s5.27,2.2,5.27,6.31-2.09,6.31-5.27,6.31S381.71,175.11,381.71,171Zm8.41,1V170c0-2.22-1.26-3.59-3.15-3.59s-3.15,1.37-3.15,3.59V172c0,2.22,1.26,3.59,3.15,3.59S390.12,174.18,390.12,172Z" transform="translate(0.45 -0.09)"/><path d="M402,177.1l-1.11-3.3h-4.56l-1.07,3.3h-2l4.16-12.2h2.49L404,177.1Zm-3.35-10.39h-.08l-1.77,5.39h3.6Z" transform="translate(0.45 -0.09)"/><path d="M405.9,177.1V164.9h2v10.46h5v1.74Z" transform="translate(0.45 -0.09)"/><path d="M414.07,175.25l1.36-1.28a3.94,3.94,0,0,0,3.2,1.6c1.56,0,2.37-.77,2.37-1.95,0-.94-.49-1.48-1.91-1.76l-1.08-.2c-2.37-.43-3.57-1.53-3.57-3.48,0-2.16,1.68-3.49,4.26-3.49a4.91,4.91,0,0,1,4.13,1.87l-1.38,1.22a3.34,3.34,0,0,0-2.85-1.35c-1.4,0-2.2.58-2.2,1.65s.63,1.45,1.94,1.71l1.08.23c2.43.47,3.53,1.56,3.53,3.5,0,2.27-1.62,3.79-4.42,3.79A5.37,5.37,0,0,1,414.07,175.25Z" transform="translate(0.45 -0.09)"/><text class="cls-3" transform="translate(187.31 400.22)">VIS<tspan class="cls-4" x="28.71" y="0">U</tspan><tspan x="40.39" y="0">AL DESIGN</tspan></text><path class="cls-5" d="M221.7,208.38v26.05c0,6,2.19,8.95,7.67,8.95s7.67-3,7.67-8.95V208.38h9v25.08c0,12.54-4.5,18.14-16.68,18.14s-16.68-5.6-16.68-18.14V208.38Z" transform="translate(0.45 -0.09)"/><path class="cls-5" d="M265.11,228.89l-13-20.51h10.78l8.28,14.36h.18l8.4-14.36h10l-13.09,20.7,13.82,21.79H279.78l-9.19-15.64h-.18l-9,15.64h-10Z" transform="translate(0.45 -0.09)"/><path class="cls-1" d="M249.71,167.2a164.77,164.77,0,0,1,81.2,21.25A165.61,165.61,0,1,0,85.45,311.55,165.65,165.65,0,0,1,249.71,167.2Z" transform="translate(0.45 -0.09)"/><path class="cls-1" d="M330.91,188.45A165.66,165.66,0,0,1,85.45,311.55,167.45,167.45,0,0,0,84.1,332.8,165.61,165.61,0,1,0,330.91,188.45Z" transform="translate(0.45 -0.09)"/><path d="M38,143.91v7.53c0,2.06.71,3.13,2.62,3.13s2.62-1.07,2.62-3.13v-7.53h1.94v7.21c0,3.57-1.22,5.21-4.56,5.21s-4.57-1.64-4.57-5.21v-7.21Z" transform="translate(0.45 -0.09)"/><path d="M47.35,154.27,48.72,153a3.9,3.9,0,0,0,3.2,1.59c1.56,0,2.36-.77,2.36-1.94,0-.94-.49-1.48-1.91-1.76l-1.08-.2c-2.36-.43-3.57-1.54-3.57-3.48,0-2.17,1.68-3.5,4.27-3.5a4.93,4.93,0,0,1,4.13,1.88l-1.39,1.22a3.34,3.34,0,0,0-2.85-1.35c-1.4,0-2.2.58-2.2,1.65s.63,1.45,1.94,1.71l1.09.23c2.43.47,3.53,1.56,3.53,3.5,0,2.27-1.63,3.79-4.43,3.79A5.4,5.4,0,0,1,47.35,154.27Z" transform="translate(0.45 -0.09)"/><path d="M58.61,156.12V143.91h7.82v1.75H60.59v3.4h5.3v1.75h-5.3v3.56h5.84v1.75Z" transform="translate(0.45 -0.09)"/><path d="M71,156.12H69V143.91h5.27a3.35,3.35,0,0,1,3.53,3.68A3.22,3.22,0,0,1,75.4,151L78,156.12h-2.2l-2.45-4.93H71Zm3.15-6.59A1.42,1.42,0,0,0,75.7,148v-.84a1.42,1.42,0,0,0-1.59-1.52H71v3.88Z" transform="translate(0.45 -0.09)"/><path d="M87.85,149.37l-1.35-2.59h0v9.34H84.56V143.91h2.2l4,6.76,1.35,2.58h.05v-9.34H94v12.21h-2.2Z" transform="translate(0.45 -0.09)"/><path d="M97,156.12V143.91h7.82v1.75H99v3.4h5.3v1.75H99v3.56h5.84v1.75Z" transform="translate(0.45 -0.09)"/><path d="M107.41,156.12V143.91h7.82v1.75h-5.84v3.4h5.3v1.75h-5.3v3.56h5.84v1.75Z" transform="translate(0.45 -0.09)"/><path d="M117.78,143.91h4.32c3.11,0,5.16,2,5.16,6.11s-2.05,6.1-5.16,6.1h-4.32Zm4.32,10.46c1.82,0,3-1.17,3-3.37v-2c0-2.21-1.22-3.38-3-3.38h-2.34v8.71Z" transform="translate(0.45 -0.09)"/><path d="M128.92,154.27l1.36-1.28a3.92,3.92,0,0,0,3.2,1.59c1.56,0,2.36-.77,2.36-1.94,0-.94-.49-1.48-1.9-1.76l-1.09-.2c-2.36-.43-3.57-1.54-3.57-3.48,0-2.17,1.68-3.5,4.27-3.5a4.92,4.92,0,0,1,4.13,1.88l-1.38,1.22a3.35,3.35,0,0,0-2.85-1.35c-1.4,0-2.21.58-2.21,1.65s.63,1.45,1.95,1.71l1.08.23c2.43.47,3.53,1.56,3.53,3.5,0,2.27-1.62,3.79-4.42,3.79A5.37,5.37,0,0,1,128.92,154.27Z" transform="translate(0.45 -0.09)"/><path d="M191.18,400.31l-4-12.21h2.05l1.94,6,1.17,4.25h.07l1.19-4.25,1.94-6h2l-4.06,12.21Z" transform="translate(0.45 -0.09)"/><path d="M198.82,400.31V398.7h1.66v-9h-1.66V388.1h5.31v1.61h-1.68v9h1.68v1.61Z" transform="translate(0.45 -0.09)"/><path d="M205.81,398.45l1.36-1.27a3.94,3.94,0,0,0,3.21,1.59c1.55,0,2.36-.77,2.36-1.94,0-.95-.49-1.49-1.91-1.77l-1.08-.19c-2.37-.44-3.57-1.54-3.57-3.48,0-2.17,1.68-3.5,4.27-3.5a4.91,4.91,0,0,1,4.12,1.87L213.19,391a3.34,3.34,0,0,0-2.85-1.34c-1.4,0-2.2.57-2.2,1.64s.63,1.45,1.94,1.71l1.08.23c2.43.48,3.54,1.56,3.54,3.5,0,2.27-1.63,3.8-4.43,3.8A5.38,5.38,0,0,1,205.81,398.45Z" transform="translate(0.45 -0.09)"/><path d="M218.94,388.1v7.52c0,2.06.72,3.13,2.63,3.13s2.62-1.07,2.62-3.13V388.1h1.94v7.2c0,3.57-1.22,5.22-4.56,5.22S217,398.87,217,395.3v-7.2Z" transform="translate(0.45 -0.09)"/><path d="M236.38,400.31,235.27,397h-4.56l-1.07,3.31h-2l4.16-12.21h2.49l4.16,12.21ZM233,389.92H233l-1.77,5.38h3.6Z" transform="translate(0.45 -0.09)"/><path d="M240.32,400.31V388.1h2v10.46h5v1.75Z" transform="translate(0.45 -0.09)"/><path d="M253.42,388.1h4.32c3.11,0,5.16,2,5.16,6.1s-2,6.11-5.16,6.11h-4.32Zm4.32,10.46c1.82,0,3-1.17,3-3.38v-2c0-2.2-1.22-3.37-3-3.37H255.4v8.71Z" transform="translate(0.45 -0.09)"/><path d="M265.36,400.31V388.1h7.82v1.75h-5.84v3.39h5.3V395h-5.3v3.57h5.84v1.75Z" transform="translate(0.45 -0.09)"/><path d="M274.92,398.45l1.37-1.27a3.92,3.92,0,0,0,3.2,1.59c1.56,0,2.36-.77,2.36-1.94,0-.95-.49-1.49-1.91-1.77l-1.08-.19c-2.36-.44-3.57-1.54-3.57-3.48,0-2.17,1.68-3.5,4.27-3.5a4.93,4.93,0,0,1,4.13,1.87L282.31,391a3.35,3.35,0,0,0-2.86-1.34c-1.39,0-2.2.57-2.2,1.64s.63,1.45,1.94,1.71l1.09.23c2.43.48,3.53,1.56,3.53,3.5,0,2.27-1.63,3.8-4.43,3.8A5.4,5.4,0,0,1,274.92,398.45Z" transform="translate(0.45 -0.09)"/><path d="M285.66,400.31V398.7h1.66v-9h-1.66V388.1H291v1.61H289.3v9H291v1.61Z" transform="translate(0.45 -0.09)"/><path d="M301.31,398.45h-.07c-.24,1.18-1.43,2.07-3.29,2.07-2.9,0-5-2.22-5-6.32s2.13-6.31,5.33-6.31a4.75,4.75,0,0,1,4.55,2.74l-1.61.95a3,3,0,0,0-2.94-1.93c-1.92,0-3.22,1.32-3.22,3.56v2c0,2.24,1.3,3.55,3.22,3.55,1.54,0,2.89-.79,2.89-2.31v-.94h-2.52v-1.7H303v6.51h-1.73Z" transform="translate(0.45 -0.09)"/><path d="M309.07,393.56,307.73,391h-.06v9.34h-1.88V388.1H308l4,6.75,1.34,2.59h.06V388.1h1.88v12.21h-2.2Z" transform="translate(0.45 -0.09)"/><path class="cls-6" d="M249.71,167.2a164.84,164.84,0,0,0-81.21,21.25,167.45,167.45,0,0,1-1.35-21.25A165.61,165.61,0,1,1,414,311.55,165.65,165.65,0,0,0,249.71,167.2Z" transform="translate(0.45 -0.09)"/><path class="cls-6" d="M168.5,188.45A165.67,165.67,0,0,0,414,311.55a167.45,167.45,0,0,1,1.35,21.25A165.61,165.61,0,1,1,168.5,188.45Z" transform="translate(0.45 -0.09)"/></svg>