<svg xmlns="http://www.w3.org/2000/svg" width="250" height="250" viewBox="0 0 250 250"><title>venn-diagram-bg</title><path d="M66.47,227.7c2,1.58,4.46-1.55,2.44-3.12S64.45,226.13,66.47,227.7Z"/><path d="M42.89,132.29c1.74-1.86-1.16-4.57-2.9-2.7S41.14,134.16,42.89,132.29Z"/><path d="M2.47,147.89c-2.43.79-1.2,4.56,1.23,3.77S4.9,147.1,2.47,147.89Z"/><path d="M45.93,148.43c.22,2.55,4.17,2.2,4-.35S45.7,145.88,45.93,148.43Z"/><path d="M209.8,34.07c2.54-.36,2-4.29-.55-3.93S207.27,34.42,209.8,34.07Z"/><path d="M125.2,161.59c2.39.91,3.81-2.79,1.43-3.71S122.82,160.67,125.2,161.59Z"/><path d="M133.27,175.63c-2.17-1.35-4.27,2-2.1,3.37S135.44,177,133.27,175.63Z"/><path d="M129.11,16.84c-.31,2.54,3.63,3,3.94.49S129.42,14.31,129.11,16.84Z"/><path d="M132.2,146.54c2.27,1.16,4.08-2.37,1.8-3.53S129.92,145.38,132.2,146.54Z"/><path d="M58,75.37a2,2,0,0,0,.69,3.91C61.2,78.84,60.52,74.93,58,75.37Z"/><path d="M69.84,78.47c-2.56,0-2.55,4,0,4S72.39,78.47,69.84,78.47Z"/><path d="M149.73,107.63c1-2.37-2.73-3.85-3.68-1.49S148.77,110,149.73,107.63Z"/><path d="M114.07,158c2.46.7,3.55-3.11,1.09-3.82S111.61,157.31,114.07,158Z"/><path d="M26.6,250h1.14A1.93,1.93,0,0,0,26.6,250Z"/><path d="M29,2.89A1.94,1.94,0,0,0,27.74,0H26.6a1.91,1.91,0,0,0-1,.84C24.26,3,27.66,5.08,29,2.89Z"/><path d="M80,86.44C78.33,88.34,81.28,91,83,89.1S81.75,84.54,80,86.44Z"/><path d="M223.32,24.56c-1.87-1.74-4.57,1.16-2.71,2.9S225.19,26.3,223.32,24.56Z"/><path d="M14.15,59.25c2.35-1,.8-4.65-1.55-3.65S11.8,60.25,14.15,59.25Z"/><path d="M150.18,132.43c-.74-2.44-4.54-1.29-3.79,1.16S150.93,134.87,150.18,132.43Z"/><path d="M165,134.76c2.17-1.36.06-4.72-2.1-3.37S162.81,136.11,165,134.76Z"/><path d="M45,197.85c2.54-.27,2.13-4.22-.41-3.95S42.49,198.11,45,197.85Z"/><path d="M187.72,65c-2.45.74-1.29,4.54,1.16,3.79S190.16,64.2,187.72,65Z"/><path d="M114.25,192.94c-1.68,1.93,1.32,4.53,3,2.6S115.93,191,114.25,192.94Z"/><path d="M116.44,204.22c1.31-2.19-2.09-4.23-3.4-2S115.12,206.41,116.44,204.22Z"/><path d="M158.7,87.28c-1.39-2.15-4.72,0-3.33,2.16S160.09,89.42,158.7,87.28Z"/><path d="M154.3,77.37c-.79,2.43,3,3.66,3.77,1.23S155.09,74.94,154.3,77.37Z"/><path d="M125,70.6c-.48-2.51-4.38-1.76-3.89.75S125.45,73.11,125,70.6Z"/><path d="M139,57.31c-2.51-.49-3.27,3.41-.76,3.89S141.51,57.8,139,57.31Z"/><path d="M28.17,43c2.49.62,3.44-3.23,1-3.85S25.7,42.38,28.17,43Z"/><path d="M240,220.7c2-1.64-.6-4.68-2.55-3S238.05,222.34,240,220.7Z"/><path d="M60.7,70.1c-2.54.36-2,4.28.55,3.93S63.22,69.74,60.7,70.1Z"/><path d="M62.44,52.63c-2.42-.79-3.65,3-1.22,3.77S64.88,53.42,62.44,52.63Z"/><path d="M46.73,81.78c-2.38-.91-3.8,2.79-1.42,3.7S49.12,82.7,46.73,81.78Z"/><path d="M71.26,7.15c2.45.7,3.54-3.11,1.09-3.82S68.8,6.44,71.26,7.15Z"/><path d="M177,100.73c-2.54.32-2.05,4.25.48,3.94S179.5,100.42,177,100.73Z"/><path d="M167,89.17c.22-2.54-3.73-2.89-4-.34S166.77,91.72,167,89.17Z"/><path d="M147.93,3.78c-2.51-.44-3.2,3.46-.69,3.91S150.45,4.22,147.93,3.78Z"/><path d="M139.51,21.69c-2.54-.18-2.82,3.78-.27,3.95S142.07,21.86,139.51,21.69Z"/><path d="M130.28,214.56c-2.55-.18-2.82,3.78-.28,4S132.83,214.74,130.28,214.56Z"/><path d="M87.09,119.24c0-2.55-4-2.48-4,.07S87.14,121.8,87.09,119.24Z"/><path d="M120.86,61.43c-3.29,2-.22,7.09,3.07,5.11S124.16,59.44,120.86,61.43Z"/><path d="M98.7,52.93c-2.23,1.24-.31,4.71,1.92,3.47S100.94,51.69,98.7,52.93Z"/><path d="M93.29,51.35c-2.47.66-1.45,4.5,1,3.84S95.76,50.69,93.29,51.35Z"/><path d="M105.37,17.33c.35-2.53-3.58-3.08-3.93-.55S105,19.86,105.37,17.33Z"/><path d="M101.19,28.31c1,2.37,4.64.89,3.68-1.48S100.23,25.94,101.19,28.31Z"/><path d="M109.75,14c2.53-.31,2-4.25-.49-3.94S107.21,14.28,109.75,14Z"/><path d="M127.23,13c-1.43-2.12-4.72.1-3.29,2.22S128.65,15.09,127.23,13Z"/><path d="M45,109.68c-2.54.31-2.06,4.25.48,3.94S47.53,109.37,45,109.68Z"/><path d="M223.13,21.58c1.61-2-1.47-4.48-3.08-2.5S221.53,23.56,223.13,21.58Z"/><path d="M207.38,11.67c2.41.83,3.71-2.92,1.29-3.75S205,10.84,207.38,11.67Z"/><path d="M88.83,204.93c-.58-2.49-4.45-1.6-3.87.89S89.4,207.42,88.83,204.93Z"/><path d="M75.59,186.82c-2.25-1.2-4.12,2.3-1.86,3.5S77.85,188,75.59,186.82Z"/><path d="M181.19,60.73c.45,2.52,4.36,1.83,3.91-.69S180.75,58.22,181.19,60.73Z"/><path d="M243.86,188.16c2.17-1.35.06-4.72-2.1-3.36S241.69,189.52,243.86,188.16Z"/><path d="M5.58,80.78c0,2.55,3.92,2.63,4,.07S5.63,78.22,5.58,80.78Z"/><path d="M207.87,78c-1.35-2.17-4.72-.07-3.37,2.1S209.23,80.18,207.87,78Z"/><path d="M195.57,191.31c-2.55-.27-3,3.68-.42,3.95S198.11,191.58,195.57,191.31Z"/><path d="M192.91,185.85c-1,2.35,2.66,3.91,3.66,1.55S193.91,183.5,192.91,185.85Z"/><path d="M232.38,201.17c1.23-2.23-2.23-4.16-3.47-1.92S231.14,203.41,232.38,201.17Z"/><path d="M136.19,109.81c-2.55-.27-3,3.68-.42,3.94S138.72,110.07,136.19,109.81Z"/><path d="M187.3,112.56c-2.51.49-1.75,4.38.75,3.9S189.8,112.07,187.3,112.56Z"/><path d="M16.78,247.08c1.08,2.32,4.67.64,3.59-1.68S15.7,244.77,16.78,247.08Z"/><path d="M32.43,57.11c-2.19,1.32-.15,4.72,2,3.4S34.62,55.8,32.43,57.11Z"/><path d="M15.75,82.81c2.44-.75,1.28-4.55-1.16-3.8S13.3,83.55,15.75,82.81Z"/><path d="M38.16,66.06c2.09-1.47-.18-4.72-2.27-3.25S36.07,67.52,38.16,66.06Z"/><path d="M19.75,62.91c-2.35-1-3.91,2.65-1.55,3.65S22.1,63.9,19.75,62.91Z"/><path d="M149.91,242.62c0,2.55,3.92,2.63,4,.07S150,240.06,149.91,242.62Z"/><path d="M247,99.3c2.26,1.2,4.11-2.3,1.86-3.5S244.74,98.1,247,99.3Z"/><path d="M79.05,24.34c-2.51.53-1.68,4.41.82,3.88S81.54,23.81,79.05,24.34Z"/><path d="M73.88,41.09c-2-1.61-4.48,1.48-2.5,3.08S75.86,42.7,73.88,41.09Z"/><path d="M144.84,30c-2.54-.36-3.08,3.57-.55,3.93S147.37,30.35,144.84,30Z"/><path d="M162.55,23.65c-2.47-.66-3.49,3.17-1,3.83S165,24.31,162.55,23.65Z"/><path d="M124,94.51c-2-1.61-4.48,1.48-2.49,3.09S126,96.12,124,94.51Z"/><path d="M124.93,77.66c-.45,2.51,3.46,3.2,3.91.68S125.37,75.14,124.93,77.66Z"/><path d="M106.91,82.06c-2.54.18-2.27,4.14.28,4S109.46,81.88,106.91,82.06Z"/><path d="M248.65,4.49a1.83,1.83,0,0,0,1.35.68V1.24A2,2,0,0,0,248.65,4.49Z"/><path d="M1.65,1.89A1.8,1.8,0,0,0,0,1.24V5.17A2,2,0,0,0,1.65,1.89Z"/><path d="M12.5,6.24c1.35-2.17-2-4.27-3.36-2.11S11.15,8.41,12.5,6.24Z"/><path d="M100.2,240.07c-2.56-.09-2.69,3.88-.14,4S102.75,240.16,100.2,240.07Z"/><path d="M67.57,230.39c-1.46-2.09-4.71.19-3.25,2.28S69,232.48,67.57,230.39Z"/><path d="M141.22,162.23c1-2.35-2.66-3.91-3.66-1.55S140.22,164.58,141.22,162.23Z"/><path d="M136.56,173.84c2.34-1,.72-4.66-1.61-3.62S134.23,174.88,136.56,173.84Z"/><path d="M169.47,150.27c-2.5-.53-3.33,3.35-.82,3.88S172,150.81,169.47,150.27Z"/><path d="M126.75,60.31c1.36,2.16,4.72.06,3.37-2.11S125.4,58.14,126.75,60.31Z"/><path d="M138.15,34.08c2.54.31,3-3.63.49-3.94S135.62,33.77,138.15,34.08Z"/><path d="M35.72,229.63c-1.9-1.71-4.55,1.24-2.65,3S37.62,231.34,35.72,229.63Z"/><path d="M57.65,227.88c-2.67-2.76-7,1.38-4.29,4.15S60.32,230.65,57.65,227.88Z"/><path d="M130.18,233.09c.79-2.42-3-3.65-3.78-1.22S129.39,235.53,130.18,233.09Z"/><path d="M212.44,157.35c1.54-2-1.63-4.43-3.17-2.39S210.91,159.39,212.44,157.35Z"/><path d="M248.05,181.43c-1.36,1.56.36,3.57,1.95,3.24v-3.83A1.78,1.78,0,0,0,248.05,181.43Z"/><path d="M0,180.84v3.83A1.94,1.94,0,0,0,1.05,184,2,2,0,0,0,0,180.84Z"/><path d="M26.92,174.2c-2.09,1.47.19,4.72,2.28,3.25S29,172.74,26.92,174.2Z"/><path d="M38.9,37.3c2.55-.22,2.2-4.18-.35-3.95S36.35,37.52,38.9,37.3Z"/><path d="M105.39,88.28c-2.55.22-2.21,4.17.34,4S107.93,88.05,105.39,88.28Z"/><path d="M61.62,113.67c1.93-1.68-.67-4.68-2.6-3S59.69,115.34,61.62,113.67Z"/><path d="M89.31,110.19c2.52-.45,1.83-4.36-.69-3.91S86.79,110.63,89.31,110.19Z"/><path d="M229.61,122.78c-2.51-.45-3.21,3.46-.69,3.91S232.13,123.22,229.61,122.78Z"/><path d="M49.31,156c1.57-2-1.56-4.45-3.13-2.44S47.74,158,49.31,156Z"/><path d="M52.14,5.62C50,6.94,52,10.34,54.19,9S54.33,4.31,52.14,5.62Z"/><path d="M53.6,16.45c1.36,2.17,4.72.06,3.37-2.1S52.25,14.29,53.6,16.45Z"/><path d="M169.34,46.82c4.58,2.33,8.19-4.77,3.62-7.1S164.77,44.49,169.34,46.82Z"/><path d="M178.28,62.83c-2.4-.88-3.75,2.85-1.36,3.73S180.68,63.7,178.28,62.83Z"/><path d="M217.34,206.47c1.42-2.12-1.86-4.34-3.29-2.22S215.91,208.59,217.34,206.47Z"/><path d="M221.25,244.52c2.46-.7,1.36-4.52-1.1-3.81S218.79,245.23,221.25,244.52Z"/><path d="M49.14,20.09c2.55-.13,2.34-4.1-.21-4S46.59,20.22,49.14,20.09Z"/><path d="M68.25,134.71c2.23-1.24.31-4.71-1.93-3.47S66,136,68.25,134.71Z"/><path d="M123.82,155.67c2.72-2.72-1.5-6.94-4.22-4.22S121.1,158.39,123.82,155.67Z"/><path d="M217.76,122.84c-2.42.83-1.13,4.58,1.29,3.75S220.18,122,217.76,122.84Z"/><path d="M200.1,50c1.57,2,4.7-.42,3.13-2.44S198.53,48,200.1,50Z"/><path d="M19.68,206.83c-.09-2.56-4.06-2.42-4,.13S19.77,209.38,19.68,206.83Z"/><path d="M229.87,56c-.66-2.47-4.49-1.44-3.83,1S230.53,58.45,229.87,56Z"/><path d="M86.29,158.52c3.83-.27,3.42-6.23-.41-6S82.45,158.78,86.29,158.52Z"/><path d="M173.57,193.53c-.87,2.4,2.85,3.76,3.73,1.36S174.44,191.13,173.57,193.53Z"/><path d="M197.51,155.12c-1.16-2.27-4.7-.48-3.54,1.8S198.67,157.4,197.51,155.12Z"/><path d="M83.66,36.37c2.12-1.43-.1-4.72-2.22-3.29S81.54,37.79,83.66,36.37Z"/><path d="M73.4,48.13c.17,2.56,4.13,2.27,3.95-.27S73.22,45.59,73.4,48.13Z"/><path d="M89.93,199.89c2.12,1.43,4.34-1.86,2.22-3.29S87.81,198.46,89.93,199.89Z"/><path d="M86.49,237.27c1.78,1.84,4.63-.92,2.86-2.76S84.72,235.43,86.49,237.27Z"/><path d="M137.42,133.34c2.55.23,2.89-3.73.34-4S134.87,133.12,137.42,133.34Z"/><path d="M240.36,240.4c-2,1.58.43,4.7,2.44,3.13S242.37,238.83,240.36,240.4Z"/><path d="M249.08,237.91a1.85,1.85,0,0,0,.92,2.42V236.9A1.84,1.84,0,0,0,249.08,237.91Z"/><path d="M0,236.9v3.43a1.89,1.89,0,0,0,2.76-.93A2,2,0,0,0,0,236.9Z"/><path d="M119.12,41.47c-1.16,2.28,2.38,4.08,3.54,1.81S120.28,39.2,119.12,41.47Z"/><path d="M111.7,36.48c-2.53-.36-3.09,3.57-.56,3.93S114.23,36.83,111.7,36.48Z"/><path d="M86.52,64.86c.4,2.53,4.32,1.91,3.92-.62S86.12,62.34,86.52,64.86Z"/><path d="M236.75,114.79c2.4-.87,1.05-4.6-1.36-3.73S234.35,115.67,236.75,114.79Z"/><path d="M142.22,231.62c1.16-2.27-2.38-4.08-3.54-1.8S141.06,233.9,142.22,231.62Z"/><path d="M136.55,234.09c.49-2.51-3.41-3.26-3.9-.75S136.06,236.6,136.55,234.09Z"/><path d="M44.22,152.88c-.31-2.54-4.25-2.06-3.94.48S44.53,155.42,44.22,152.88Z"/><path d="M169.17,249.73a2.14,2.14,0,0,0,.06.27h3.83a2.09,2.09,0,0,0,.05-.76C172.8,246.71,168.86,247.19,169.17,249.73Z"/><path d="M173.06,0h-3.83A2,2,0,0,0,173.06,0Z"/><path d="M15.67,8c2.41.83,3.71-2.92,1.29-3.76S13.25,7.14,15.67,8Z"/><path d="M15,14.65c2.41-.83,1.12-4.59-1.29-3.76S12.57,15.48,15,14.65Z"/><path d="M86,23.44c-2.41-.88-3.76,2.85-1.36,3.73S88.4,24.31,86,23.44Z"/><path d="M100.56,84.55c-1.39-2.14-4.72,0-3.33,2.16S102,86.69,100.56,84.55Z"/><path d="M154,132.47c-1.16,2.27,2.38,4.07,3.54,1.8S155.14,130.19,154,132.47Z"/><path d="M92.89,213.07c2.4.88,3.76-2.85,1.36-3.72S90.49,212.2,92.89,213.07Z"/><path d="M148,207.35c2.46-.71,1.36-4.52-1.1-3.82S145.51,208.05,148,207.35Z"/><path d="M96.76,1.13C95.29-1,92,1.31,93.51,3.41S98.22,3.22,96.76,1.13Z"/><path d="M75.41,229.49c.49-2.51-3.41-3.26-3.89-.76S74.92,232,75.41,229.49Z"/><path d="M116.65,128.44c1.39-2.14-1.94-4.3-3.33-2.16S115.26,130.58,116.65,128.44Z"/><path d="M15.56,39.27c-2.46.66-1.44,4.5,1,3.83S18,38.61,15.56,39.27Z"/><path d="M80.56,9.58c-1.71,1.9,1.23,4.56,2.94,2.65S82.27,7.68,80.56,9.58Z"/><path d="M231.52,189.09c-.48-2.51-4.38-1.75-3.89.76S232,191.6,231.52,189.09Z"/><path d="M91.58,134.44c-1.32,2.19,2.08,4.23,3.4,2S92.9,132.25,91.58,134.44Z"/><path d="M6.55,105.26c2.56.09,2.69-3.88.14-4S4,105.17,6.55,105.26Z"/><path d="M189.61,94.58c-2.31,1.08-.64,4.68,1.68,3.6S191.93,93.5,189.61,94.58Z"/><path d="M168.17,232.35c1.32-2.19-2.08-4.24-3.4-2S166.85,234.54,168.17,232.35Z"/><path d="M173.26,234.14c-2.23,1.24-.31,4.71,1.92,3.47S175.5,232.9,173.26,234.14Z"/><path d="M110.65,105.61c.09,2.55,4,2.42,4-.14S110.56,103.05,110.65,105.61Z"/><path d="M176.29,123.35c3.29-2,.22-7.09-3.08-5.11S173,125.33,176.29,123.35Z"/><path d="M18.73,224.49c-.31,2.53,3.62,3,3.94.48S19,222,18.73,224.49Z"/><path d="M18.55,76.6c1.5-2.06-1.71-4.39-3.21-2.33S17.05,78.67,18.55,76.6Z"/><path d="M188.27,229.05c-.49-2.51-4.38-1.75-3.9.76S188.76,231.56,188.27,229.05Z"/><path d="M195.8,221.23c2.43-.79,1.21-4.56-1.23-3.77S193.37,222,195.8,221.23Z"/><path d="M120.34,79.08c-2.55.27-2.13,4.22.41,4S122.88,78.82,120.34,79.08Z"/><path d="M227.56,30.74c-2.19,1.32-.15,4.72,2,3.4S229.75,29.42,227.56,30.74Z"/><path d="M119.4,234.39c1.24,2.24,4.71.32,3.47-1.92S118.16,232.16,119.4,234.39Z"/><path d="M207.73,231.52c1-2.37-2.72-3.86-3.68-1.49S206.77,233.89,207.73,231.52Z"/><path d="M36.08,223.3c3-2.37-.65-7.07-3.67-4.71S33.05,225.66,36.08,223.3Z"/><path d="M42.79,224.67c-.18-2.55-4.13-2.27-4,.27S43,227.21,42.79,224.67Z"/><path d="M63.77,224.29c-1.57-2-4.7.42-3.13,2.44S65.35,226.3,63.77,224.29Z"/><path d="M245.69,18.26c.18-2.55-3.78-2.83-4-.28S245.51,20.81,245.69,18.26Z"/><path d="M147.35,143.62c.83-2.42-2.92-3.71-3.75-1.29S146.52,146,147.35,143.62Z"/><path d="M73.52,129.66c2.38-.92,1-4.62-1.42-3.71S71.13,130.58,73.52,129.66Z"/><path d="M55.72,122.19c1,2.33,4.66.72,3.63-1.62S54.68,119.86,55.72,122.19Z"/><path d="M131.91,162c2.24,1.24,4.16-2.24,1.93-3.47S129.68,160.78,131.91,162Z"/><path d="M136.13,149.12c-2.55.18-2.27,4.14.28,4S138.68,148.94,136.13,149.12Z"/><path d="M129,145.77c-2.15-1.39-4.31,1.93-2.17,3.32S131.09,147.16,129,145.77Z"/><path d="M52.75,88.87c-.4-2.53-4.32-1.9-3.92.62S53.15,91.39,52.75,88.87Z"/><path d="M181.29,198.31c2.24,1.24,4.16-2.23,1.93-3.47S179.06,197.07,181.29,198.31Z"/><path d="M120.06,188.29c2.55.05,2.62-3.92.07-4S117.5,188.25,120.06,188.29Z"/><path d="M122.24,199.54c-.36-2.53-4.29-2-3.93.56S122.59,202.07,122.24,199.54Z"/><path d="M107.25,221.32c2.43.79,3.66-3,1.23-3.78S104.82,220.53,107.25,221.32Z"/><path d="M109.22,231.09c-2.33,1-.72,4.67,1.62,3.63S111.56,230.06,109.22,231.09Z"/><path d="M189.44,53.81c1.47,2.1,4.71-.18,3.25-2.27S188,51.72,189.44,53.81Z"/><path d="M192.5,38.86c-1.68,1.93,1.31,4.54,3,2.61S194.18,36.93,192.5,38.86Z"/><path d="M219.22,80.75c-1.64,2,1.4,4.51,3,2.55S220.87,78.79,219.22,80.75Z"/><path d="M214.59,70.79c.88,2.4,4.61,1,3.73-1.36S213.72,68.39,214.59,70.79Z"/><path d="M213.18,81.13c-2.46-.71-3.55,3.11-1.09,3.81S215.64,81.83,213.18,81.13Z"/><path d="M34.59,213.73c-.53-2.5-4.41-1.68-3.88.83S35.12,216.23,34.59,213.73Z"/><path d="M234.35,151.34c-1.47,2.1,1.78,4.37,3.25,2.28S235.81,149.25,234.35,151.34Z"/><path d="M44.45,144.08c1.51-2.07-1.71-4.4-3.21-2.33S43,146.15,44.45,144.08Z"/><path d="M37.78,135.81c-.48,2.51,3.41,3.26,3.9.76S38.27,133.3,37.78,135.81Z"/><path d="M145.26,250h4a2,2,0,0,0-.27-.87C147.92,247.3,145.39,248.34,145.26,250Z"/><path d="M149.24,0h-4a2,2,0,0,0,.27,1.11C146.64,3,149.35,1.8,149.24,0Z"/><path d="M71.55,166.17c1.32-2.19-2.08-4.24-3.4-2S70.23,168.36,71.55,166.17Z"/><path d="M95,48.16c.57,2.5,4.44,1.6,3.87-.89S94.44,45.68,95,48.16Z"/><path d="M90.7,37.41c1.16,2.28,4.7.48,3.54-1.8S89.54,35.14,90.7,37.41Z"/><path d="M160.63,81.81c-2.42-.84-3.71,2.92-1.29,3.75S163,82.64,160.63,81.81Z"/><path d="M173.36,70.67c-1.27,2.21,2.16,4.19,3.44,2S174.64,68.45,173.36,70.67Z"/><path d="M197.86,118.91c2.47.66,3.5-3.17,1-3.83S195.39,118.25,197.86,118.91Z"/><path d="M11.36,157.25c2.54.31,3-3.63.48-3.94S8.83,156.93,11.36,157.25Z"/><path d="M8.92,149.89c2.44-.79,1.21-4.57-1.22-3.78S6.5,150.68,8.92,149.89Z"/><path d="M30.77,203.9c-1.75-1.86-4.65.84-2.91,2.71S32.51,205.77,30.77,203.9Z"/><path d="M34.68,196.2c.75,2.44,4.55,1.28,3.8-1.16S33.94,193.76,34.68,196.2Z"/><path d="M53.91,211.89c2.64-4.41-4.19-8.5-6.83-4.11S51.27,216.28,53.91,211.89Z"/><path d="M128.8,29.28c4.72-2,1.61-9.34-3.12-7.33S124.07,31.29,128.8,29.28Z"/><path d="M184.79,22.51c.8,2.43,4.57,1.2,3.78-1.23S184,20.08,184.79,22.51Z"/><path d="M194.65,135.3c0-2.56-4-2.49-4,.07S194.7,137.85,194.65,135.3Z"/><path d="M207.2,131.56c2,1.65,4.5-1.4,2.55-3S205.24,129.92,207.2,131.56Z"/><path d="M60.05,234.44c-3.77-.73-4.91,5.13-1.14,5.86S63.82,235.18,60.05,234.44Z"/><path d="M46.22,241.94c-2-1.61-4.48,1.47-2.5,3.08S48.21,243.55,46.22,241.94Z"/><path d="M3.88,82.77A2.84,2.84,0,0,0,0,81v5.45C2,87,4.68,85.39,3.88,82.77Z"/><path d="M248.17,84.51a2.7,2.7,0,0,0,1.83,1.9V81A2.78,2.78,0,0,0,248.17,84.51Z"/><path d="M105.91,142.3c-2.37,1-.89,4.64,1.48,3.68S108.28,141.35,105.91,142.3Z"/><path d="M94.57,154.83c1.36-2.17-2-4.28-3.36-2.11S93.22,157,94.57,154.83Z"/><path d="M64,209.88c-1.63-3.48-7-1-5.41,2.52S65.66,213.36,64,209.88Z"/><path d="M58.52,153c-2.49.58-1.59,4.44.9,3.87S61,152.4,58.52,153Z"/><path d="M51.39,146.94c2,1.58,4.45-1.55,2.44-3.13S49.38,145.37,51.39,146.94Z"/><path d="M211.65,53.08c-2.55-.22-2.9,3.73-.35,4S214.2,53.31,211.65,53.08Z"/><path d="M155.2,150.36c-2.29-1.12-4,2.44-1.74,3.56S157.5,151.48,155.2,150.36Z"/><path d="M62.46,135c-2-1.6-4.49,1.48-2.5,3.09S64.44,136.57,62.46,135Z"/><path d="M46.66,139.25c3.83.27,4.26-5.69.42-6S42.83,139,46.66,139.25Z"/><path d="M57,138c-1.71-1.9-4.66.75-3,2.65S58.66,139.85,57,138Z"/><path d="M199.63,34.9c-2.38-1-3.86,2.72-1.49,3.67S202,35.85,199.63,34.9Z"/><path d="M204,31c-2.56,0-2.49,4,.07,4S206.59,30.9,204,31Z"/><path d="M75.39,167.65c-3.75.86-2.4,6.68,1.34,5.81S79.13,166.78,75.39,167.65Z"/><path d="M113.92,164.26c2.21,1.27,4.2-2.16,2-3.44S111.71,163,113.92,164.26Z"/><path d="M130.69,169c-1.44-3.56-7-1.33-5.53,2.23S132.13,172.59,130.69,169Z"/><path d="M122.88,165.72c2.41-.83,1.13-4.58-1.29-3.75S120.46,166.56,122.88,165.72Z"/><path d="M122.55,178.24c.17,2.55,4.13,2.28,4-.28S122.37,175.69,122.55,178.24Z"/><path d="M227.9,203.7c-2.42-.83-3.7,2.92-1.29,3.75S230.32,204.53,227.9,203.7Z"/><path d="M157,198.53c2.47.62,3.44-3.23,1-3.85S154.52,197.91,157,198.53Z"/><path d="M169.48,184.43c2.28-1.16.48-4.7-1.8-3.54S167.21,185.59,169.48,184.43Z"/><path d="M162,202.76c2.55-.09,2.42-4.06-.14-4S159.4,202.85,162,202.76Z"/><path d="M189.46,156.26c-1-2.36-4.65-.8-3.65,1.55S190.46,158.61,189.46,156.26Z"/><path d="M169.16,175.09c1-2.35-2.65-3.9-3.65-1.55S168.16,177.44,169.16,175.09Z"/><path d="M176.5,153.21c-3.83.26-3.42,6.22.42,5.95S180.34,152.94,176.5,153.21Z"/><path d="M74,120.58c-1.47,2.09,1.78,4.37,3.25,2.27S75.44,118.49,74,120.58Z"/><path d="M149,102.45c3.53,1.5,5.87-4,2.33-5.49S145.46,101,149,102.45Z"/><path d="M160.36,91c-2.54.31-2.05,4.25.48,3.94S162.9,90.68,160.36,91Z"/><path d="M135,198.89c2.19-1.32.14-4.72-2-3.4S132.76,200.2,135,198.89Z"/><path d="M139.61,178.06c-.36-2.53-4.29-2-3.93.55S140,180.59,139.61,178.06Z"/><path d="M129.9,180.2c-2.45-.75-3.61,3.05-1.16,3.8S132.34,181,129.9,180.2Z"/><path d="M92,41.24c-1.32-2.19-4.72-.14-3.41,2S93.28,43.43,92,41.24Z"/><path d="M83.79,50.89c-.73,3.78,5.13,4.91,5.86,1.14S84.52,47.12,83.79,50.89Z"/><path d="M135,12.85c3-2.37-.64-7.07-3.67-4.7S132,15.22,135,12.85Z"/><path d="M114.68,7.41c2.19,1.32,4.23-2.09,2-3.4S112.49,6.09,114.68,7.41Z"/><path d="M80.37,184.67c-2.5-.53-3.33,3.35-.82,3.88S82.87,185.2,80.37,184.67Z"/><path d="M141.1,157.5c2.26-1.2.39-4.7-1.87-3.51S138.84,158.7,141.1,157.5Z"/><path d="M139.74,144.23c-2-1.58-4.45,1.55-2.44,3.13S141.75,145.8,139.74,144.23Z"/><path d="M150.47,153.09c-1.93-1.68-4.53,1.32-2.6,3S152.4,154.76,150.47,153.09Z"/><path d="M146.38,195.76c-1.84,1.78.92,4.63,2.76,2.86S148.22,194,146.38,195.76Z"/><path d="M21.79,173.52c2.53.36,3.08-3.57.55-3.93S19.26,173.16,21.79,173.52Z"/><path d="M21.88,157.76c-2.26,1.2-.39,4.7,1.86,3.5S24.13,156.56,21.88,157.76Z"/><path d="M94.55,240.68c-3.23-2.09-6.47,2.92-3.25,5S97.77,242.78,94.55,240.68Z"/><path d="M104.57,228.43c-1.84-1.77-4.6,1.08-2.76,2.86S106.41,230.21,104.57,228.43Z"/><path d="M105.77,237.08c.36-2.53-3.57-3.08-3.93-.55S105.42,239.62,105.77,237.08Z"/><path d="M43.57,62.35c-2.21-1.28-4.2,2.15-2,3.43S45.78,63.62,43.57,62.35Z"/><path d="M49,77.64c-1.81,3.39,3.46,6.2,5.27,2.81S50.82,74.25,49,77.64Z"/><path d="M222.27,35c2.45-.75,1.29-4.54-1.16-3.8S219.83,35.73,222.27,35Z"/><path d="M215.14,29.09c-1.35,2.17,2,4.27,3.37,2.1S216.5,26.92,215.14,29.09Z"/><path d="M41.85,3.27A2.8,2.8,0,0,0,44.19,0H38.46A2.91,2.91,0,0,0,41.85,3.27Z"/><path d="M40.81,247.39A2.74,2.74,0,0,0,38.46,250h5.73A2.84,2.84,0,0,0,40.81,247.39Z"/><path d="M31.49,234.7c-2-1.64-4.51,1.4-2.55,3S33.44,236.34,31.49,234.7Z"/><path d="M25.47,245c-1.15,2.28,2.38,4.08,3.54,1.81S26.64,242.77,25.47,245Z"/><path d="M234.19,157.51c-3.15-2.2-6.57,2.69-3.42,4.89S237.34,159.72,234.19,157.51Z"/><path d="M130,118.63c-2.24-1.24-4.16,2.23-1.93,3.47S132.18,119.86,130,118.63Z"/><path d="M137.39,124.77c1-2.34-2.59-4-3.62-1.61S136.35,127.1,137.39,124.77Z"/><path d="M131.3,137.38c-2.46-.7-3.56,3.11-1.1,3.82S133.75,138.09,131.3,137.38Z"/><path d="M102.36,223.29c2-1.61-.51-4.69-2.5-3.08S100.37,224.9,102.36,223.29Z"/><path d="M86.29,216c3.84,0,3.84-6,0-6S82.44,216,86.29,216Z"/><path d="M4.23,206.09c2.43.79,3.66-3,1.23-3.77S1.8,205.3,4.23,206.09Z"/><path d="M23.73,198.62c-2.76-2.66-6.91,1.63-4.15,4.3S26.5,201.3,23.73,198.62Z"/><path d="M12.79,190.89c-1.12-2.3-4.68-.55-3.56,1.74S13.91,193.19,12.79,190.89Z"/><path d="M59.35,82.12c-3,4.16,3.44,8.83,6.45,4.69S62.37,78,59.35,82.12Z"/><path d="M178.7,167.45c-2.17,1.35-.07,4.72,2.1,3.36S180.86,166.09,178.7,167.45Z"/><path d="M192.66,181.05c1.28,2.22,4.71.23,3.44-2S191.38,178.84,192.66,181.05Z"/><path d="M183.73,166.29c2.3-1.13.56-4.69-1.74-3.57S181.44,167.41,183.73,166.29Z"/><path d="M204.46,73.88c1.43,2.12,4.72-.1,3.29-2.22S203,71.76,204.46,73.88Z"/><path d="M211.2,70.08c2.49-.57,1.6-4.44-.89-3.87S208.71,70.66,211.2,70.08Z"/><path d="M200.22,56.45c2.55,0,2.62-3.92.07-4S197.66,56.41,200.22,56.45Z"/><path d="M191,64.23c1.83,1.77,4.59-1.08,2.75-2.85S189.17,62.45,191,64.23Z"/><path d="M245.65,247.66a2.85,2.85,0,0,0,4.35.44v-4.45C247.64,241.61,243.61,244.75,245.65,247.66Z"/><path d="M0,243.65v4.45a2.77,2.77,0,0,0,.54-3.86A3.45,3.45,0,0,0,0,243.65Z"/><path d="M122.37,51c-2.25-1.2-4.12,2.3-1.86,3.5S124.63,52.21,122.37,51Z"/><path d="M101.8,51.16c.27,2.54,4.21,2.13,4-.41S101.53,48.62,101.8,51.16Z"/><path d="M115.77,58c1.67,1.93,4.67-.68,3-2.6S114.09,56.07,115.77,58Z"/><path d="M229.3,73c-2.23,1.24-.31,4.71,1.93,3.47S231.54,71.73,229.3,73Z"/><path d="M94.23,109.63c1.81,1.81,4.61-1,2.81-2.8S92.42,107.82,94.23,109.63Z"/><path d="M188.87,187.78c-2.53.31-2.06,4.25.48,3.94S191.41,187.47,188.87,187.78Z"/><path d="M176.44,176.18c-3.66,1.19-1.81,6.87,1.84,5.68S180.09,175,176.44,176.18Z"/><path d="M187.56,183.08c1.93-1.68-.68-4.67-2.61-3S185.63,184.75,187.56,183.08Z"/><path d="M168.51,27.32c.62,2.47,4.47,1.52,3.86-1S167.9,24.83,168.51,27.32Z"/><path d="M179.78,20.66c-2.56-.09-2.7,3.88-.14,4S182.33,20.75,179.78,20.66Z"/><path d="M171,32c-2.24,1.24-.32,4.71,1.92,3.47S173.27,30.79,171,32Z"/><path d="M15,137.3c-1.64-2-4.68.59-3,2.55S16.66,139.25,15,137.3Z"/><path d="M19.06,124.6c2.54.32,3-3.62.49-3.93S16.52,124.29,19.06,124.6Z"/><path d="M142.71,124.5c-3.63,1.25-1.69,6.89,1.95,5.64S146.35,123.25,142.71,124.5Z"/><path d="M156.08,128.76c2.45.75,3.6-3,1.16-3.79S153.64,128,156.08,128.76Z"/><path d="M139.69,120.6c3.82.4,4.45-5.53.63-5.94S135.87,120.2,139.69,120.6Z"/><path d="M143,110.82c-.87,2.4,2.85,3.76,3.73,1.36S143.87,108.42,143,110.82Z"/><path d="M62.81,107.71c1.89-1.71-.76-4.66-2.66-2.95S60.91,109.42,62.81,107.71Z"/><path d="M55,106.23c-2.5-.53-3.33,3.35-.83,3.89S57.49,106.77,55,106.23Z"/><path d="M47.57,94.44c-2.36,1-.8,4.65,1.55,3.65S49.92,93.44,47.57,94.44Z"/><path d="M36.92,105.59c.57,2.5,4.44,1.6,3.86-.89S36.34,103.11,36.92,105.59Z"/><path d="M34.87,94.36C32.55,95.43,34.23,99,36.54,98S37.19,93.27,34.87,94.36Z"/><path d="M46.53,102.05c-2.53.27-2.12,4.21.42,4S49.08,101.78,46.53,102.05Z"/><path d="M104.78,156.66c2.41-.84,1.13-4.59-1.29-3.76S102.36,157.49,104.78,156.66Z"/><path d="M98.64,171.87c2.53-.31,2-4.25-.49-3.94S96.1,172.18,98.64,171.87Z"/><path d="M110.58,156.08c-2-1.64-4.51,1.4-2.55,3S112.53,157.73,110.58,156.08Z"/><path d="M95.3,158.46c-3.1-2.26-6.62,2.57-3.51,4.83S98.41,160.72,95.3,158.46Z"/><path d="M241.38,126.49c-2.54.35-2,4.28.55,3.93S243.9,126.13,241.38,126.49Z"/><path d="M245.12,120.35c2.33,1,3.94-2.58,1.61-3.62S242.79,119.31,245.12,120.35Z"/><path d="M245.26,179.83c-.62-2.48-4.47-1.51-3.85,1S245.88,182.31,245.26,179.83Z"/><path d="M239.84,165.18c-.61-2.48-4.47-1.52-3.85,1S240.46,167.66,239.84,165.18Z"/><path d="M94.59,182.66c-.58-2.49-4.45-1.6-3.87.89S95.16,185.15,94.59,182.66Z"/><path d="M93,174.09c2.23-1.23.31-4.71-1.93-3.47S90.71,175.33,93,174.09Z"/><path d="M82.9,179.14c1.08-2.31-2.52-4-3.6-1.67S81.82,181.46,82.9,179.14Z"/><path d="M78.56,57.54c3.83-.4,3.2-6.33-.62-5.93S74.74,58,78.56,57.54Z"/><path d="M82.27,62.25c1.81,1.81,4.62-1,2.81-2.8S80.47,60.45,82.27,62.25Z"/><path d="M64.16,65.25c-2,3.3,3.14,6.37,5.12,3.08S66.14,62,64.16,65.25Z"/><path d="M72.75,73.58c-1.92,4.75,5.46,7.74,7.39,3S74.67,68.82,72.75,73.58Z"/><path d="M69.67,58.47c1.61,2,4.69-.51,3.08-2.5S68.06,56.48,69.67,58.47Z"/><path d="M180,235.43c2.28,1.16,4.08-2.38,1.81-3.54S177.76,234.27,180,235.43Z"/><path d="M134.75,241.62c-2.37-3-7.07.65-4.7,3.67S137.11,244.64,134.75,241.62Z"/><path d="M3.88,76.79c2.47-.67,1.44-4.5-1-3.84S1.41,77.45,3.88,76.79Z"/><path d="M14.37,61.77c-2.34-1-3.95,2.58-1.62,3.62S16.7,62.81,14.37,61.77Z"/><path d="M9.41,72.48c-2.53.31-2,4.25.48,3.94S12,72.17,9.41,72.48Z"/><path d="M41.52,147.12c-1.16-2.28-4.7-.48-3.54,1.8S42.68,149.39,41.52,147.12Z"/><path d="M219.75,88.54c1.9-1.71-.76-4.66-2.65-3S217.85,90.25,219.75,88.54Z"/><path d="M208.25,91.73c2.14,1.39,4.31-1.94,2.16-3.33S206.1,90.33,208.25,91.73Z"/><path d="M199.51,148.09c2.55-.05,2.49-4-.07-4S197,148.13,199.51,148.09Z"/><path d="M208,149.72c.61,2.48,4.47,1.52,3.85-1S207.37,147.24,208,149.72Z"/><path d="M31.26,107.05c1.84,1.77,4.6-1.08,2.76-2.86S29.43,105.27,31.26,107.05Z"/><path d="M14.31,113.67c-1.78,1.84,1.08,4.6,2.85,2.76S16.08,111.84,14.31,113.67Z"/><path d="M33.29,5.67c0-2.56-3.93-2.62-4-.07S33.24,8.22,33.29,5.67Z"/><path d="M21.93,4.57c2.51-.44,1.83-4.35-.69-3.91S19.41,5,21.93,4.57Z"/><path d="M89.21,27.91c-2.4.87-1,4.6,1.36,3.73S91.61,27,89.21,27.91Z"/><path d="M95.94,31.63c1.93,1.68,4.53-1.32,2.6-3S94,30,95.94,31.63Z"/><path d="M207.41,165.7c2.51-.53,1.68-4.41-.82-3.88S204.92,166.24,207.41,165.7Z"/><path d="M207.82,152.84c-.58-2.49-4.44-1.59-3.87.89S208.39,155.33,207.82,152.84Z"/><path d="M202,151.93c-.57-2.49-4.44-1.6-3.86.89S202.55,154.42,202,151.93Z"/><path d="M196.86,160.39c-2.16-1.36-4.27,2-2.1,3.36S199,161.74,196.86,160.39Z"/><path d="M66.52,186.67c-2.3-1.12-4,2.44-1.74,3.56S68.82,187.79,66.52,186.67Z"/><path d="M69.75,180.58c3.37,1.86,6.26-3.36,2.9-5.22S66.4,178.71,69.75,180.58Z"/><path d="M86.54,88.47c-2.55.22-2.2,4.17.35,4S89.08,88.25,86.54,88.47Z"/><path d="M82.1,82.8c1.37,3.6,6.94,1.45,5.57-2.13S80.72,79.22,82.1,82.8Z"/><path d="M113.34,183.14c-.73-3.78-6.59-2.63-5.86,1.14S114.07,186.91,113.34,183.14Z"/><path d="M100.77,177.86c-.18-2.54-4.14-2.27-4,.28S100.94,180.42,100.77,177.86Z"/><path d="M99.7,196.2c2.53.31,3-3.63.48-3.94S97.16,195.89,99.7,196.2Z"/><path d="M121.59,207.65c2.45-.75,1.28-4.54-1.16-3.8S119.15,208.4,121.59,207.65Z"/><path d="M226,26.73c1.74,1.87,4.64-.84,2.9-2.7S224.26,24.86,226,26.73Z"/><path d="M237.64,98.14c-2.41.83-1.13,4.58,1.29,3.75S240.06,97.31,237.64,98.14Z"/><path d="M5.28,121.18c6.41.11,6.6-9.85.17-10S-1.14,121.07,5.28,121.18Z"/><path d="M205,50.36c-.92,2.38,2.79,3.81,3.7,1.42S205.88,48,205,50.36Z"/><path d="M7,53.52c-1.31,2.19,2.09,4.24,3.4,2S8.28,51.33,7,53.52Z"/><path d="M152.94,136.19c-1.7-1.9-4.66.75-2.94,2.65S154.66,138.09,152.94,136.19Z"/><path d="M153.91,144.76c-1.74-1.87-4.64.83-2.9,2.71S155.66,146.63,153.91,144.76Z"/><path d="M168.19,126.57c-2.55,0-2.55,4,0,4A2,2,0,0,0,168.19,126.57Z"/><path d="M164.13,127.13c-.87-2.4-4.6-1-3.73,1.36S165,129.54,164.13,127.13Z"/><path d="M160.28,119.14c2.4.88,3.76-2.85,1.35-3.72S157.87,118.27,160.28,119.14Z"/><path d="M220.43,249.77a2.18,2.18,0,0,0-.09.23H224A2,2,0,0,0,220.43,249.77Z"/><path d="M223.91,1.7A1.81,1.81,0,0,0,224,0h-3.65C219.45,2.13,222.71,3.86,223.91,1.7Z"/><path d="M215.37,13c-2.12,1.43.1,4.72,2.22,3.29S217.49,11.53,215.37,13Z"/><path d="M231.58,15.44c.87,2.4,4.6,1,3.72-1.36S230.7,13,231.58,15.44Z"/><path d="M213.54,10c1,2.33,4.66.72,3.62-1.61A2,2,0,0,0,213.54,10Z"/><path d="M226.09,19.08c-.13,2.55,3.83,2.77,4,.21S226.23,16.53,226.09,19.08Z"/><path d="M195,203.86c-1.15-5-8.92-3.2-7.76,1.8S196.19,208.86,195,203.86Z"/><path d="M48.62,188.75c-2.54-.32-3,3.62-.48,3.93S51.16,189.06,48.62,188.75Z"/><path d="M51.16,199.87c1.12-2.3-2.45-4-3.57-1.74S50,202.16,51.16,199.87Z"/><path d="M183.58,69.38c-2.12,1.43.1,4.71,2.22,3.29S185.7,68,183.58,69.38Z"/><path d="M112,196.56c-1.42-4.92-9.08-2.74-7.66,2.2S113.43,201.5,112,196.56Z"/><path d="M114.48,209.12c1-2.33-2.59-4-3.63-1.61S113.44,211.46,114.48,209.12Z"/><path d="M98,201c-1.32-2.19-4.72-.14-3.4,2S99.3,203.18,98,201Z"/><path d="M141.24,206.33c-2.17,1.36-.07,4.72,2.1,3.37S143.4,205,141.24,206.33Z"/><path d="M138.87,214.07c-3.71-1-5.26,4.77-1.55,5.76S142.58,215.06,138.87,214.07Z"/><path d="M238.58,66.17c-1.65-2-4.68.6-3,2.56S240.22,68.13,238.58,66.17Z"/><path d="M179.79,14.38c-.93,3.74,4.86,5.17,5.79,1.45S180.72,10.66,179.79,14.38Z"/><path d="M199.68,9.75c2-1.61-.51-4.69-2.5-3.08S197.7,11.36,199.68,9.75Z"/><path d="M179.65,7.86c3.14-2.21-.27-7.1-3.42-4.89S176.5,10.06,179.65,7.86Z"/><path d="M150.83,93.7c2.25,1.2,4.11-2.31,1.86-3.51S148.57,92.5,150.83,93.7Z"/><path d="M153.86,86.23c-.23-2.55-4.18-2.2-4,.34S154.08,88.77,153.86,86.23Z"/><path d="M148.52,75.47c-3.72,1-2.17,6.76,1.54,5.76S152.22,74.48,148.52,75.47Z"/><path d="M147.34,65.81c-.27,2.54,3.68,3,3.94.42S147.6,63.27,147.34,65.81Z"/><path d="M129.71,68.12c-3.83.27-3.42,6.22.42,5.95S133.55,67.85,129.71,68.12Z"/><path d="M138.87,79.81c0-2.56-3.92-2.62-4-.07S138.83,82.36,138.87,79.81Z"/><path d="M132.59,65c1.31,2.19,4.71.14,3.4-2.05S131.27,62.85,132.59,65Z"/><path d="M141.6,61.66c0,2.56,4,2.56,4,0S141.6,59.1,141.6,61.66Z"/><path d="M102.05,8.93c-.92,2.38,2.79,3.81,3.7,1.42S103,6.54,102.05,8.93Z"/><path d="M110.56,5.28c.22-2.55-3.73-2.9-4-.35S110.33,7.83,110.56,5.28Z"/><path d="M32.36,21.63c2.3,1.12,4-2.44,1.74-3.57S30.07,20.51,32.36,21.63Z"/><path d="M30.16,36.43c-.45,2.51,3.46,3.21,3.9.69S30.6,33.91,30.16,36.43Z"/><path d="M23.76,38.39c2.48-.62,1.52-4.47-1-3.85S21.28,39,23.76,38.39Z"/><path d="M242.7,227.67c-.13-2.55-4.1-2.35-4,.21S242.83,230.22,242.7,227.67Z"/><path d="M223.47,239.69c.84,2.42,4.59,1.12,3.76-1.29S222.64,237.28,223.47,239.69Z"/><path d="M242.69,231.73c-3.84.07-3.74,6,.1,6S246.53,231.67,242.69,231.73Z"/><path d="M236.4,222.55c-.09-2.55-4.05-2.42-4,.14S236.49,225.1,236.4,222.55Z"/><path d="M74.83,215.28c-2.5.48-1.75,4.38.76,3.89S77.34,214.79,74.83,215.28Z"/><path d="M86.32,227.64c-2.54-.26-3,3.68-.42,4S88.86,227.91,86.32,227.64Z"/><path d="M73.76,222c-.66-2.47-4.49-1.44-3.83,1S74.42,224.42,73.76,222Z"/><path d="M32.7,131.21c-.53,2.5,3.35,3.32,3.88.82S33.23,128.71,32.7,131.21Z"/><path d="M30.53,146.54c1.74-1.87-1.16-4.58-2.91-2.71S28.78,148.41,30.53,146.54Z"/><path d="M121.86,145.14c.62-2.48-3.23-3.44-3.85-1S121.24,147.62,121.86,145.14Z"/><path d="M115.91,147.51c-.67-3.79-6.54-2.74-5.88,1S116.58,151.29,115.91,147.51Z"/><path d="M124.77,140.8c1.84-1.77-.92-4.63-2.76-2.85S122.93,142.58,124.77,140.8Z"/><path d="M55.34,68.35c-2.51.53-1.68,4.41.82,3.88S57.83,67.82,55.34,68.35Z"/><path d="M61,58.81c-1.5,2.06,1.71,4.4,3.21,2.33S62.53,56.74,61,58.81Z"/><path d="M75.34,92c3.59-1.37,1.45-7-2.14-5.57S71.75,93.35,75.34,92Z"/><path d="M15.28,22.26c-1.2,2.25,2.3,4.12,3.5,1.86S16.48,20,15.28,22.26Z"/><path d="M249.34,33.66a5.83,5.83,0,0,0,.66.17V26C246.59,26.63,245.27,32.17,249.34,33.66Z"/><path d="M2.07,26.17A3.87,3.87,0,0,0,0,26v7.84C4.4,34.7,6.67,27.84,2.07,26.17Z"/><path d="M249.68,61.13c-.87-2.4-4.61-1.05-3.73,1.35S250.55,63.53,249.68,61.13Z"/><path d="M30.15,186.06c-5.06-.81-6.32,7.06-1.25,7.87S35.22,186.86,30.15,186.06Z"/><path d="M41,187.55c-1.35-2.17-4.72-.06-3.36,2.11S42.35,189.72,41,187.55Z"/><path d="M209.57,241.77c-.7-2.46-4.52-1.36-3.81,1.09S210.27,244.22,209.57,241.77Z"/><path d="M199.52,4.56C202,4,201.11.12,198.62.7S197,5.14,199.52,4.56Z"/><path d="M29.08,80.44c-2.56,0-2.56,4,0,4S31.63,80.44,29.08,80.44Z"/><path d="M39.41,81c.45,2.51,4.36,1.83,3.91-.69S39,78.5,39.41,81Z"/><path d="M42.45,90c1.47,2.1,4.72-.18,3.25-2.28S41,87.94,42.45,90Z"/><path d="M249.26,208.74c-1.81-1.8-4.62,1-2.81,2.81S251.07,210.55,249.26,208.74Z"/><path d="M231.42,216.4c3,2.42,6.74-2.22,3.75-4.64S228.43,214,231.42,216.4Z"/><path d="M75.24,9.7c2,1.61,4.48-1.48,2.49-3.08S73.25,8.09,75.24,9.7Z"/><path d="M85,249.33a2,2,0,0,0,.17.67h3.63a2,2,0,0,0,.16-.95C88.76,246.5,84.8,246.78,85,249.33Z"/><path d="M88.78,0H85.15A2,2,0,0,0,88.78,0Z"/><path d="M88.24,11.41c3.73.93,5.18-4.86,1.44-5.79S84.51,10.48,88.24,11.41Z"/><path d="M175.87,80.12c-1,2.35,2.65,3.9,3.65,1.55S176.87,77.76,175.87,80.12Z"/><path d="M179.67,96.68c-2.21,1.28-.22,4.72,2,3.44S181.88,95.41,179.67,96.68Z"/><path d="M170.21,86.56c-3.15,2.2.28,7.09,3.42,4.88S173.36,84.35,170.21,86.56Z"/><path d="M43.89,12.72C46.7,15.35,50.77,11,48,8.36S41.08,10.1,43.89,12.72Z"/><path d="M39.26,5.82c-.4-2.53-4.32-1.9-3.92.62S39.66,8.34,39.26,5.82Z"/><path d="M158.62,4.18c.2-3.84-5.76-4.16-6-.32S158.42,8,158.62,4.18Z"/><path d="M141,8.07c-3.18,2.14.15,7.1,3.34,4.94S144.15,5.92,141,8.07Z"/><path d="M163.43,18.38c2.09-3.22-2.91-6.47-5-3.25S161.34,21.61,163.43,18.38Z"/><path d="M142.66,18.09c-2.2,3.15,2.68,6.58,4.89,3.43S144.87,14.94,142.66,18.09Z"/><path d="M75.33,16.59c2.42.84,3.71-2.92,1.29-3.75S72.92,15.76,75.33,16.59Z"/><path d="M81.73,20.11c.92-2.39-2.79-3.8-3.7-1.42S80.82,22.5,81.73,20.11Z"/><path d="M238.33,178c.44-2.52-3.47-3.21-3.91-.69S237.88,180.52,238.33,178Z"/><path d="M124.72,219.5c2.56-.18,2.27-4.14-.27-4S122.18,219.67,124.72,219.5Z"/><path d="M132.14,220.62c-5.13-.09-5.26,7.88-.14,8S137.27,220.71,132.14,220.62Z"/><path d="M119.42,218.08c2.57-2.85-1.86-6.85-4.43-4S116.85,220.94,119.42,218.08Z"/><path d="M89.18,119.47c-2.1,1.47.18,4.72,2.27,3.25S91.27,118,89.18,119.47Z"/><path d="M105.24,133.16c-1.93-1.68-4.53,1.32-2.61,3S107.16,134.84,105.24,133.16Z"/><path d="M93.79,76.75c-.62,5.08,7.29,6.06,7.91,1S94.42,71.65,93.79,76.75Z"/><path d="M103.9,56.34c-2.47,2.95,2.1,6.78,4.57,3.84S106.37,53.4,103.9,56.34Z"/><path d="M95,68.57c1.93-1.67-.67-4.67-2.6-3S93.07,70.25,95,68.57Z"/><path d="M110.9,70c4.31,2.8,8.64-3.89,4.34-6.68S106.6,67.16,110.9,70Z"/><path d="M92.52,58.9c-1.44,3.56,4.1,5.79,5.53,2.23S94,55.34,92.52,58.9Z"/><path d="M107.75,35.59c2.52.45,3.21-3.46.69-3.9S105.24,35.15,107.75,35.59Z"/><path d="M103.88,24.09c2.21,1.28,4.2-2.16,2-3.44S101.67,22.81,103.88,24.09Z"/><path d="M114.84,22.86c5.87,2.61,9.91-6.5,4-9.11S109,20.25,114.84,22.86Z"/><path d="M182.16,45.07c1.24-2.24-2.24-4.16-3.47-1.93S180.92,47.3,182.16,45.07Z"/><path d="M180.35,38.65c1.65,2,4.68-.6,3-2.55S178.71,36.69,180.35,38.65Z"/><path d="M104.77,113.11c2.33-1,.72-4.66-1.61-3.62S102.43,114.15,104.77,113.11Z"/><path d="M106.63,94.27c-1.88,1.74.83,4.64,2.7,2.9S108.49,92.53,106.63,94.27Z"/><path d="M6.19,159.85c1.16-2.28-2.38-4.08-3.54-1.8S5,162.12,6.19,159.85Z"/><path d="M21,164.85c1.28-2.22-2.16-4.2-3.43-2S19.74,167.06,21,164.85Z"/><path d="M16.92,160.31c2.55.18,2.83-3.78.28-4S14.37,160.13,16.92,160.31Z"/><path d="M234.37,55.45c-3.23,4,3,9,6.19,5S237.6,51.46,234.37,55.45Z"/><path d="M238.6,36.39c-1.12-2.3-4.69-.55-3.57,1.74S239.72,38.69,238.6,36.39Z"/><path d="M248.11,38.49c.83-2.41-2.92-3.7-3.75-1.29S247.28,40.91,248.11,38.49Z"/><path d="M43.7,127.45c2.43-.79,1.2-4.57-1.23-3.78S41.27,128.23,43.7,127.45Z"/><path d="M37.06,110.32c-.58,2.48,3.29,3.38,3.86.89S37.63,107.82,37.06,110.32Z"/><path d="M52.8,120.43c1.84-4.79-5.6-7.65-7.44-2.86S51,125.22,52.8,120.43Z"/><path d="M31,126.56c3.43-1.74.71-7.06-2.71-5.31S27.58,128.31,31,126.56Z"/><path d="M217,24.89c2.95-2.47-.89-7-3.84-4.57S214.05,27.36,217,24.89Z"/><path d="M193,16.42c-3.77.73-2.63,6.59,1.14,5.85S196.74,15.68,193,16.42Z"/><path d="M197.49,13.82c-.87,2.4,2.86,3.76,3.73,1.36S198.36,11.42,197.49,13.82Z"/><path d="M208.72,13.3c-2.29,1.12-.56,4.69,1.74,3.57S211,12.18,208.72,13.3Z"/><path d="M86.51,200.72c.44-2.51-3.47-3.2-3.91-.69S86.06,203.24,86.51,200.72Z"/><path d="M79.82,191.76c-1.39-2.14-4.72,0-3.33,2.16S81.21,193.9,79.82,191.76Z"/><path d="M70.74,195.25c2.56.09,2.7-3.88.14-4S68.19,195.16,70.74,195.25Z"/><path d="M72.77,212.42c1,2.37,4.64.89,3.68-1.48S71.82,210.05,72.77,212.42Z"/><path d="M70,208c-1.39-2.14-4.72,0-3.32,2.17S71.4,210.11,70,208Z"/><path d="M174.76,50.27c.22,2.54,4.17,2.2,4-.35S174.53,47.72,174.76,50.27Z"/><path d="M175.13,60.54c3.59,1.38,5.73-4.19,2.14-5.57S171.55,59.17,175.13,60.54Z"/><path d="M186,57.66c-.13,2.55,3.83,2.76,4,.21S186.15,55.11,186,57.66Z"/><path d="M5.52,188.89c-1.24-2.67-4.69-1.81-5.52.3v1.9c0,.11.06.21.11.32C1.74,194.9,7.14,192.37,5.52,188.89Z"/><path d="M250,191.09v-1.9A2.7,2.7,0,0,0,250,191.09Z"/><path d="M236.58,187.34c-3.8.6-2.86,6.5.93,5.9S240.37,186.74,236.58,187.34Z"/><path d="M238.33,204c1.35-2.17-2-4.27-3.37-2.11S237,206.13,238.33,204Z"/><path d="M13.84,85.59c-1.51-3.54-7-1.2-5.5,2.33S15.34,89.13,13.84,85.59Z"/><path d="M81.76,148.23c2.16,1.36,4.27-2,2.1-3.36S79.59,146.88,81.76,148.23Z"/><path d="M89.67,133.33c-.4-2.52-4.32-1.9-3.92.63S90.07,135.86,89.67,133.33Z"/><path d="M191.33,90.7c-.4,2.53,3.52,3.15,3.92.62S191.73,88.18,191.33,90.7Z"/><path d="M197.24,84.41c-1.5,4.9,6.12,7.24,7.62,2.33S198.74,79.5,197.24,84.41Z"/><path d="M197.22,109.48c2.21-3.15-2.69-6.57-4.89-3.42S195,112.63,197.22,109.48Z"/><path d="M19.25,56.6c-2,1.57.43,4.7,2.45,3.12S21.27,55,19.25,56.6Z"/><path d="M22.93,44.17c2.56,0,2.63-3.92.07-4S20.38,44.13,22.93,44.17Z"/><path d="M16.47,50c-2.3,1.12-.55,4.68,1.74,3.56S18.77,48.87,16.47,50Z"/><path d="M199.73,198c.92,2.38,4.62,1,3.71-1.43S198.82,195.56,199.73,198Z"/><path d="M207.76,198.62c-2.55,0-2.56,4,0,4S210.32,198.62,207.76,198.62Z"/><path d="M200.37,183.3c-1.08,2.31,2.51,4,3.59,1.67S201.45,181,200.37,183.3Z"/><path d="M201.32,190.13c.75-2.45-3-3.6-3.8-1.16S200.57,192.57,201.32,190.13Z"/><path d="M226.51,197.11c.22-6.41-9.74-6.77-10-.35S226.28,203.53,226.51,197.11Z"/><path d="M158.47,238.73c-.4-2.52-4.32-1.9-3.92.62S158.87,241.26,158.47,238.73Z"/><path d="M158.31,245.82c-2.4.87-1.05,4.6,1.35,3.73S160.71,244.94,158.31,245.82Z"/><path d="M181,239.42c-6.1-2-9.19,7.5-3.08,9.48S187.14,241.41,181,239.42Z"/><path d="M241.31,147.36c2.48.58,3.38-3.29.89-3.86S238.81,146.79,241.31,147.36Z"/><path d="M2.13,128A2.73,2.73,0,0,0,0,125.16v5.53A2.74,2.74,0,0,0,2.13,128Z"/><path d="M246.16,127.87a2.92,2.92,0,0,0,3.84,2.82v-5.53A2.91,2.91,0,0,0,246.16,127.87Z"/><path d="M239.34,134.9c-2.54.27-2.13,4.21.42,3.95S241.88,134.63,239.34,134.9Z"/><path d="M213.62,175.34c-2-1.57-4.46,1.55-2.45,3.13S215.63,176.91,213.62,175.34Z"/><path d="M215.78,163.72c2.21-1.28.23-4.71-2-3.44S213.56,165,215.78,163.72Z"/><path d="M225.94,181.56c-.34-6.4-10.3-5.89-10,.52S226.27,188,225.94,181.56Z"/><path d="M123.83,117.69c-1.75-3.42-7.06-.71-5.32,2.71S125.57,121.11,123.83,117.69Z"/><path d="M129,111.31c-1.68,1.92,1.31,4.53,3,2.6S130.7,109.38,129,111.31Z"/><path d="M127.59,99c-2.3,1.12-.55,4.68,1.74,3.56S129.89,97.88,127.59,99Z"/><path d="M174.78,128.89c-1.12,2.29,2.44,4,3.56,1.74S175.9,126.59,174.78,128.89Z"/><path d="M180,115.72c-.09,2.55,3.88,2.69,4,.14S180.11,113.16,180,115.72Z"/><path d="M193,119.76c2.09-1.47-.18-4.72-2.27-3.25S190.88,121.23,193,119.76Z"/><path d="M21,239.26c-2.56-.09-2.69,3.88-.14,4S23.54,239.35,21,239.26Z"/><path d="M29.36,228.92c2.85-2.57-1.14-7-4-4.44S26.5,231.49,29.36,228.92Z"/><path d="M30.39,61.29C27.85,61,27.44,65,30,65.24S32.94,61.56,30.39,61.29Z"/><path d="M31.54,78.07c0,2.56,3.92,2.62,4,.07S31.59,75.52,31.54,78.07Z"/><path d="M22.55,85.22c3.76-.8,2.52-6.63-1.24-5.83S18.79,86,22.55,85.22Z"/><path d="M34.48,71.46c2.26,1.2,4.12-2.31,1.86-3.5S32.23,70.26,34.48,71.46Z"/><path d="M16.76,71.68c2.55-.22,2.2-4.17-.35-4S14.22,71.91,16.76,71.68Z"/><path d="M147.08,40.91c.87-2.39-2.86-3.76-3.73-1.35S146.2,43.32,147.08,40.91Z"/><path d="M148.16,35.62c-1.64,2,1.4,4.51,3,2.55S149.81,33.66,148.16,35.62Z"/><path d="M146.51,53.56c-1.16,2.28,2.38,4.08,3.54,1.8S147.67,51.28,146.51,53.56Z"/><path d="M164.39,44.49c-1.28-2.21-4.71-.22-3.43,2S165.67,46.7,164.39,44.49Z"/><path d="M189.22,211.58a2,2,0,0,0,.14,4C191.91,215.45,191.77,211.49,189.22,211.58Z"/><path d="M151,235.22c-2.56,0-2.49,4,.06,4S153.56,235.17,151,235.22Z"/><path d="M158.86,228.21c-1.63-3.49-7-1-5.41,2.52S160.48,231.69,158.86,228.21Z"/><path d="M146.71,226.14c2-1.54-.35-4.71-2.38-3.17S144.67,227.67,146.71,226.14Z"/><path d="M234.08,99.7c1.39-2.14-1.93-4.3-3.33-2.16S232.69,101.85,234.08,99.7Z"/><path d="M230.89,80.57c-1.2,2.25,2.31,4.12,3.51,1.86S232.09,78.31,230.89,80.57Z"/><path d="M226.89,82.32c2.34-1,.72-4.67-1.61-3.63S224.56,83.35,226.89,82.32Z"/><path d="M246.26,87.66c-3-5.67-11.81-1-8.8,4.68S249.27,93.32,246.26,87.66Z"/><path d="M63.34,140.28c-2.15,1.4,0,4.72,2.16,3.33S65.48,138.89,63.34,140.28Z"/><path d="M76.11,140.09c2.91-2.52-1-7-3.91-4.5S73.22,142.61,76.11,140.09Z"/><path d="M74.85,153.28c.44,2.51,4.35,1.83,3.91-.69S74.4,150.76,74.85,153.28Z"/><path d="M13.64,106.42c3.84.2,4.16-5.76.31-6S9.8,106.22,13.64,106.42Z"/><path d="M26.49,95.79c-1.12,2.3,2.44,4,3.56,1.74S27.61,93.49,26.49,95.79Z"/><path d="M25.59,87.55c-2.5-.57-3.38,3.3-.9,3.87S28.07,88.13,25.59,87.55Z"/><path d="M77.09,28.93c-2.16-1.36-4.27,2-2.1,3.36S79.26,30.28,77.09,28.93Z"/><path d="M62.89,37.13c.31-2.53-3.63-3-3.94-.48S62.58,39.67,62.89,37.13Z"/><path d="M62.46,42c-4.2,2.94.37,9.47,4.57,6.52S66.67,39,62.46,42Z"/><path d="M147.53,29.69c.22,2.54,4.17,2.2,3.95-.35S147.3,27.14,147.53,29.69Z"/><path d="M157.57,35.53c.54,5.1,8.47,4.27,7.93-.83S157,30.42,157.57,35.53Z"/><path d="M153.87,20.67c-3.15,2.21.27,7.1,3.42,4.89S157,18.47,153.87,20.67Z"/><path d="M189.9,234.14c-2.46-.71-3.55,3.11-1.1,3.81S192.35,234.84,189.9,234.14Z"/><path d="M189.34,220.16c-2.55-.22-2.9,3.73-.35,4S191.89,220.38,189.34,220.16Z"/><path d="M114,95.51c-2.81,2.61,1.25,7,4.07,4.36S116.82,92.88,114,95.51Z"/><path d="M131.46,83.58c-5.13-3.87-11.12,4.1-6,8S136.58,87.44,131.46,83.58Z"/><path d="M113.85,81.51c3-2.42-.77-7.06-3.76-4.64S110.86,83.93,113.85,81.51Z"/><path d="M1.17,6.59c-2.3,1.12-.55,4.69,1.74,3.57S3.47,5.47,1.17,6.59Z"/><path d="M248.16,21.56a1.81,1.81,0,0,0,1.84-.11V18.06a1.29,1.29,0,0,0-.16-.09C247.52,16.89,245.85,20.48,248.16,21.56Z"/><path d="M0,18.06v3.39A2,2,0,0,0,0,18.06Z"/><path d="M10.75,11.71c1.61-2-1.47-4.48-3.08-2.5S9.14,13.7,10.75,11.71Z"/><path d="M11.32,23.34c3.52-1.56,1.08-7-2.42-5.45S7.81,24.9,11.32,23.34Z"/><path d="M232,50.14c-1.28-2.22-4.72-.23-3.44,2S233.23,52.35,232,50.14Z"/><path d="M102.87,245.78c.87,2.4,4.6,1,3.73-1.36S102,243.37,102.87,245.78Z"/><path d="M110.27,240.47c-.91,2.39,2.79,3.81,3.71,1.43S111.19,238.09,110.27,240.47Z"/><path d="M64.62,241.58c-2.1-1.46-4.37,1.79-2.28,3.26S66.71,243.05,64.62,241.58Z"/><path d="M69.22,234.56c-2.39-.91-3.81,2.79-1.42,3.71S71.6,235.48,69.22,234.56Z"/><path d="M80.68,243.85c1,2.33,4.66.72,3.62-1.62S79.64,241.52,80.68,243.85Z"/><path d="M76.74,232.55c-3.4,1.81-.59,7.07,2.8,5.27S80.13,230.75,76.74,232.55Z"/><path d="M108,127.64c2.54-.31,2.06-4.25-.48-3.94S105.49,128,108,127.64Z"/><path d="M109.14,114.46c1.86,3.37,7.08.47,5.22-2.89S107.28,111.1,109.14,114.46Z"/><path d="M114.16,119.51c-1.67-1.93-4.67.67-3,2.6S115.84,121.44,114.16,119.51Z"/><path d="M147.29,174.2c2.53-.31,2.05-4.25-.49-3.94S144.75,174.51,147.29,174.2Z"/><path d="M148.61,163.42c-1-3.71-6.76-2.18-5.76,1.54S149.61,167.13,148.61,163.42Z"/><path d="M139.49,166.8c0-2.56-4-2.56-4,0S139.49,169.35,139.49,166.8Z"/><path d="M166.8,138.13c0,2.55,4,2.49,4-.07S166.76,135.57,166.8,138.13Z"/><path d="M176,149.94c.22-2.55-3.73-2.9-3.95-.35S175.76,152.48,176,149.94Z"/><path d="M165.08,148c-1.64-2-4.68.59-3,2.55S166.72,149.94,165.08,148Z"/><path d="M135.15,40.22c.79,2.43,4.57,1.21,3.78-1.22S134.36,37.79,135.15,40.22Z"/><path d="M130.21,51.19c-2.9,2.52,1,7,3.92,4.5S133.11,48.67,130.21,51.19Z"/><path d="M140.22,51.73c5.13.27,5.53-7.69.41-8S135.1,51.46,140.22,51.73Z"/><path d="M130.52,31.87c-3.4,1.8-.59,7.07,2.8,5.27S133.91,30.07,130.52,31.87Z"/><path d="M53.65,237.36c1.19-2.26-2.31-4.12-3.51-1.86S52.45,239.62,53.65,237.36Z"/><path d="M39.9,234.21c-1.2-2.25-4.71-.39-3.51,1.87S41.1,236.47,39.9,234.21Z"/><path d="M47.58,231c3.84-.2,3.53-6.16-.31-6S43.74,231.25,47.58,231Z"/><path d="M115.93,232c-2.52-.44-3.21,3.47-.69,3.91S118.44,232.49,115.93,232Z"/><path d="M124.49,238.92c2.35,1,3.91-2.65,1.55-3.65S122.14,237.92,124.49,238.92Z"/><path d="M64,171.68c-1.77,1.84,1.08,4.6,2.86,2.76S65.73,169.84,64,171.68Z"/><path d="M55.72,158.21c.91-2.38-2.79-3.8-3.71-1.42S54.8,160.6,55.72,158.21Z"/><path d="M63,155.09c-1.71,1.9,1.24,4.55,2.95,2.65S64.73,153.19,63,155.09Z"/><path d="M232.18,143.47c-3,2.37.65,7.07,3.67,4.71S235.21,141.11,232.18,143.47Z"/><path d="M223.92,155.05c-3.84.13-3.63,6.1.21,6S227.76,154.91,223.92,155.05Z"/><path d="M213.29,152.59c-.31,2.54,3.63,3,3.94.48S213.61,150.06,213.29,152.59Z"/><path d="M5.63,174.13c2.44.75,3.61-3,1.16-3.79S3.19,173.39,5.63,174.13Z"/><path d="M21.24,187.13c-1.32-3.61-6.93-1.57-5.61,2S22.55,190.75,21.24,187.13Z"/><path d="M6.25,182.28C8,180.38,5,177.72,3.3,179.63S4.54,184.18,6.25,182.28Z"/><path d="M10.61,187.94c1.9-1.72-.76-4.66-2.66-2.95S8.71,189.64,10.61,187.94Z"/><path d="M22.43,177.53c-2,1.53.35,4.71,2.39,3.17S24.47,176,22.43,177.53Z"/><path d="M34.63,42.4c.33,3.82,6.28,3.31,5.94-.52S34.29,38.57,34.63,42.4Z"/><path d="M43.61,39.83c1.71,1.9,4.66-.76,3-2.65S41.9,37.93,43.61,39.83Z"/><path d="M51.94,39.14c-1.9,1.71.75,4.66,2.66,3S53.84,37.43,51.94,39.14Z"/><path d="M37.71,54.8c-2.37,3,2.34,6.7,4.7,3.67S40.07,51.77,37.71,54.8Z"/><path d="M37.64,47.73c-2.55-.22-2.89,3.73-.35,4S40.18,48,37.64,47.73Z"/><path d="M55.1,49.58c-2.19,1.31-.15,4.72,2,3.4S57.29,48.26,55.1,49.58Z"/><path d="M54.6,44.9c-1,2.34,2.59,4,3.63,1.61S55.64,42.57,54.6,44.9Z"/><path d="M86.31,98.77c-.13,2.56,3.83,2.76,4,.21S86.45,96.22,86.31,98.77Z"/><path d="M96.79,94.8c2,3.3,7.09.22,5.11-3.07S94.81,91.51,96.79,94.8Z"/><path d="M93.7,99.59c-2.48-.62-3.44,3.23-1,3.85S96.18,100.21,93.7,99.59Z"/><path d="M156.94,222c2,1.54,4.42-1.63,2.39-3.17S154.9,220.42,156.94,222Z"/><path d="M170.55,203.81c-.35-2.53-4.28-2-3.92.55S170.91,206.34,170.55,203.81Z"/><path d="M157.68,203.31c-1.44-3.56-7-1.33-5.54,2.24S159.12,206.88,157.68,203.31Z"/><path d="M170.68,215.14c1.2,2.26,4.7.39,3.5-1.86S169.48,212.89,170.68,215.14Z"/><path d="M79.35,107.4c2.17,1.35,4.26-2,2.1-3.37S77.18,106.05,79.35,107.4Z"/><path d="M71.58,102.27c-1.78-1.84-4.63.92-2.86,2.76S73.35,104.11,71.58,102.27Z"/><path d="M67.58,111.53c-1.2-2.25-4.7-.4-3.5,1.86S68.78,113.79,67.58,111.53Z"/><path d="M86.31,111.37c-1.5-3.54-7-1.2-5.49,2.33S87.81,114.91,86.31,111.37Z"/><path d="M69.39,115.92c-2.55,0-2.55,4,0,4S72,115.92,69.39,115.92Z"/><path d="M218.9,102.4c-.87,3.74,4.95,5.09,5.81,1.34S219.76,98.65,218.9,102.4Z"/><path d="M222.13,122.77a2,2,0,0,0,4,0C226.09,120.22,222.13,120.22,222.13,122.77Z"/><path d="M210.32,124.16c3.07,2.32,6.66-2.45,3.59-4.76S207.25,121.85,210.32,124.16Z"/><path d="M232.7,110.38c1.56-3.51-3.89-5.94-5.46-2.43S231.13,113.9,232.7,110.38Z"/><path d="M229.77,114.43c-2.51-.49-3.26,3.41-.76,3.89S232.28,114.92,229.77,114.43Z"/><path d="M213.45,102.2c-3.84-.2-4.16,5.76-.31,6S217.29,102.4,213.45,102.2Z"/><path d="M39.19,162.72c2.52-.35,2-4.28-.56-3.93S36.65,163.08,39.19,162.72Z"/><path d="M50.15,176.77c-4.83-1.76-7.55,5.73-2.73,7.49S55,178.52,50.15,176.77Z"/><path d="M54.08,171.35c-2-1.57-4.45,1.55-2.44,3.13S56.1,172.93,54.08,171.35Z"/><path d="M43.68,161.07c2.24,1.24,4.16-2.23,1.92-3.47S41.45,159.83,43.68,161.07Z"/><path d="M57.13,12.34c2.44.75,3.61-3,1.16-3.79S54.69,11.59,57.13,12.34Z"/><path d="M70.46,10.8c1.08-2.32-2.52-4-3.6-1.68S69.38,13.12,70.46,10.8Z"/><path d="M184.54,148.52c-1.54-2-4.71.35-3.17,2.39S186.07,150.56,184.54,148.52Z"/><path d="M179.57,143.65c-2-1.57-4.46,1.56-2.44,3.13S181.59,145.23,179.57,143.65Z"/><path d="M177.16,135c-3.85.06-3.74,6,.1,6S181,134.88,177.16,135Z"/><path d="M196.27,141.87c-.27-2.54-4.21-2.13-4,.41S196.54,144.41,196.27,141.87Z"/><path d="M171,114.48c.87,2.4,4.61,1,3.73-1.35S170.16,112.08,171,114.48Z"/><path d="M156.33,100.62c-.79,2.43,3,3.66,3.77,1.23S157.12,98.19,156.33,100.62Z"/><path d="M158.16,107.1c-1.09-2.31-4.68-.63-3.6,1.68S159.23,109.42,158.16,107.1Z"/><path d="M170.07,100c3.1,2.25,6.62-2.57,3.5-4.83S167,97.73,170.07,100Z"/><path d="M176.07,110.29c2.48-.62,1.52-4.47-1-3.85S173.59,110.91,176.07,110.29Z"/><path d="M159.25,51.14c-1.89,1.71.76,4.66,2.66,3S161.16,49.43,159.25,51.14Z"/><path d="M153.34,72.14c2.27,3.11,7.09-.4,4.83-3.51S151.09,69,153.34,72.14Z"/><path d="M152.12,58c-1.47,2.1,1.79,4.37,3.25,2.28S153.59,55.9,152.12,58Z"/><path d="M166.54,51.15c-2,3.26,3,6.42,5.06,3.16S168.58,47.89,166.54,51.15Z"/><path d="M172.12,67.26c2.55,0,2.55-4,0-4S169.56,67.26,172.12,67.26Z"/><path d="M199,218.2c-1.2,2.25,2.3,4.12,3.5,1.86S200.2,215.94,199,218.2Z"/><path d="M214.44,209.67c-1.8-3.39-7.08-.6-5.27,2.8S216.25,213.06,214.44,209.67Z"/><path d="M225.91,225.82c2.09-4.69-5.19-7.94-7.28-3.25S223.82,230.51,225.91,225.82Z"/><path d="M213.09,230.32c-6.11,2-3,11.46,3.08,9.48S219.19,228.34,213.09,230.32Z"/><path d="M60.87,17.4c1.86,3.36,7.08.48,5.22-2.89S59,14,60.87,17.4Z"/><path d="M50.47,21.5c-1.61,2,1.47,4.49,3.08,2.5S52.08,19.52,50.47,21.5Z"/><path d="M55.37,33.48c2.31-3.07-2.46-6.66-4.77-3.59S53.06,36.54,55.37,33.48Z"/><path d="M13,235.46c1.74-1.87-1.16-4.58-2.91-2.71S11.23,237.33,13,235.46Z"/><path d="M16.41,221.41c-2-3.26-7.1-.1-5.06,3.16S18.45,224.67,16.41,221.41Z"/><path d="M243.93,218.88c-.87,3.74,4.95,5.09,5.81,1.34S244.79,215.13,243.93,218.88Z"/><path d="M149.47,190.66c1.24-2.24-2.23-4.16-3.47-1.92S148.23,192.89,149.47,190.66Z"/><path d="M161.48,174.21c-1.67-1.93-4.67.68-3,2.61S163.16,176.14,161.48,174.21Z"/><path d="M143.14,175.18c-2.56,0-2.62,3.92-.07,4S145.69,175.22,143.14,175.18Z"/><path d="M161.47,183.4c2.54.27,3-3.68.42-3.94S158.93,183.13,161.47,183.4Z"/><path d="M158.15,188.66c-1.23-2.23-4.71-.31-3.47,1.92S159.39,190.9,158.15,188.66Z"/><path d="M158,169.24c-1.5-3.54-7-1.2-5.49,2.33S159.48,172.77,158,169.24Z"/><path d="M66.16,195.51c.7-2.46-3.11-3.55-3.82-1.09S65.45,198,66.16,195.51Z"/><path d="M58.15,206.12c2.54.26,3-3.68.41-4S55.61,205.85,58.15,206.12Z"/><path d="M66.44,204.12c-1-2.37-4.64-.88-3.68,1.49S67.4,206.49,66.44,204.12Z"/><path d="M201.54,169.23c-6.13,1.88-3.23,11.41,2.92,9.54S207.69,167.36,201.54,169.23Z"/><path d="M43.63,215.5c-3.23-2.09-6.48,2.91-3.26,5S46.85,217.59,43.63,215.5Z"/><path d="M53.6,216.82c-4.09,3.08.7,9.45,4.8,6.36S57.7,213.73,53.6,216.82Z"/><path d="M245.48,11.93c2.49-4.49-4.48-8.35-7-3.86S243,16.42,245.48,11.93Z"/><path d="M144.82,136c-1.25-3.63-6.89-1.7-5.64,1.94S146.07,139.67,144.82,136Z"/><path d="M68.81,123.84c-1.5-4.92-9.12-2.58-7.62,2.32S70.31,128.74,68.81,123.84Z"/><path d="M13.91,212.13c-1.12-6.31-10.93-4.59-9.82,1.74S15,218.46,13.91,212.13Z"/><path d="M132.79,155.07c1.37-3.59-4.2-5.73-5.58-2.14S131.41,158.66,132.79,155.07Z"/><path d="M54.65,89.55c-1.87,1.74.83,4.65,2.7,2.9S56.52,87.8,54.65,89.55Z"/><path d="M176.58,199c-5.1.53-4.26,8.46.84,7.92S181.68,198.5,176.58,199Z"/><path d="M128.87,194c1.24-5-6.5-6.9-7.74-1.92S127.63,198.94,128.87,194Z"/><path d="M221.55,134.81c2.33-4.57-4.77-8.19-7.1-3.62S219.22,139.38,221.55,134.81Z"/><path d="M184.56,78.22c1.58-2-1.55-4.46-3.12-2.44S183,80.24,184.56,78.22Z"/><path d="M111.31,223.32c-3.45-1.69-6.08,3.68-2.62,5.36S114.77,225,111.31,223.32Z"/><path d="M193,44.75c-2.9,2.52,1,7,3.92,4.5S195.94,42.23,193,44.75Z"/><path d="M214,74.75c-2.9,2.52,1,7,3.92,4.5S216.94,72.23,214,74.75Z"/><path d="M24.87,210.38c-6-2.41-9.68,6.84-3.74,9.24S30.81,212.78,24.87,210.38Z"/><path d="M241,153c-3.87,5.13,4.1,11.12,8,6a4.72,4.72,0,0,0,1-2.67v-.45C249.79,151.9,244.1,148.91,241,153Z"/><path d="M36.26,145c3.83-.33,3.31-6.28-.52-5.94S32.43,145.31,36.26,145Z"/><path d="M135.74,248.71a4.16,4.16,0,0,0-.6,1.29h7.68C141.94,247.26,137.89,245.64,135.74,248.71Z"/><path d="M142.26,3.29A3.61,3.61,0,0,0,142.82,0h-7.68C134.11,3.76,139.62,7.06,142.26,3.29Z"/><path d="M165.65,226.88c2.41-.84,1.12-4.59-1.3-3.76S163.23,227.71,165.65,226.88Z"/><path d="M73.26,162c3.83-.33,3.31-6.28-.52-5.94S69.43,162.31,73.26,162Z"/><path d="M28.32,198c-1.36,2.16,2,4.27,3.36,2.1S29.67,195.78,28.32,198Z"/><path d="M94.16,8.26c-1,2.37,2.72,3.85,3.68,1.48S95.12,5.89,94.16,8.26Z"/><path d="M97,37.44c-3.3,3.93,2.8,9.06,6.1,5.12S100.25,33.5,97,37.44Z"/><path d="M163.93,73.07c-5.06,4,1.08,11.81,6.14,7.86S169,69.12,163.93,73.07Z"/><path d="M203.44,108.33c-4.72,2-1.61,9.34,3.12,7.34S208.17,106.33,203.44,108.33Z"/><path d="M21.4,151.65c4.7-4.39-2.11-11.67-6.8-7.3S16.71,156,21.4,151.65Z"/><path d="M36.43,209.27c5.51,3.31,10.63-5.24,5.14-8.54S30.94,206,36.43,209.27Z"/><path d="M172.93,13c-5.13.09-5,8.05.14,8S178.06,12.93,172.93,13Z"/><path d="M116.58,32c-2.64,4.39,4.19,8.5,6.84,4.1S119.23,27.55,116.58,32Z"/><path d="M189,26.12c-6.27,1.34-4.21,11.09,2.08,9.76S195.25,24.79,189,26.12Z"/><path d="M216.83,1.1A4.43,4.43,0,0,0,217,0h-8C208.93,4.12,215.52,5.65,216.83,1.1Z"/><path d="M209.17,248.9A4.43,4.43,0,0,0,209,250h8C217.07,245.88,210.48,244.35,209.17,248.9Z"/><path d="M201.19,123.52c-5.77-2.81-10.15,6.14-4.37,9S207,126.34,201.19,123.52Z"/><path d="M144,102.52c.67-6.38-9.25-7.43-9.92-1S143.29,108.91,144,102.52Z"/><path d="M57.86,0H50C52,2.83,55.92,2.21,57.86,0Z"/><path d="M49.52,249.18A5.39,5.39,0,0,0,50,250h7.85a4.52,4.52,0,0,0,.62-5.18C55.66,239,46.71,243.42,49.52,249.18Z"/><path d="M245.42,71.64c-5.62-3.11-10.45,5.61-4.84,8.72S251,74.75,245.42,71.64Z"/><path d="M220.51,55.58c3.33,1.93,6.31-3.24,3-5.16S217.18,53.66,220.51,55.58Z"/><path d="M98.12,140.14c-6.26-1.44-8.49,8.27-2.24,9.72S104.37,141.59,98.12,140.14Z"/><path d="M67.92,220.29c2.94-2.48-.9-7-3.84-4.58S65,222.75,67.92,220.29Z"/><path d="M61.47,149.67c2.15-3.19-2.79-6.53-4.94-3.34S59.32,152.86,61.47,149.67Z"/><path d="M212.06,60.48c-.67,3.79,5.21,4.82,5.88,1S212.73,56.7,212.06,60.48Z"/><path d="M227.36,134.62c2.09,4.68,9.37,1.45,7.28-3.24S225.27,129.93,227.36,134.62Z"/><path d="M161.91,156.28c-3.5-3.75-9.32,1.69-5.82,5.44S165.41,160,161.91,156.28Z"/><path d="M51.31,132.49c1.92,4.76,9.31,1.78,7.38-3S49.38,127.73,51.31,132.49Z"/><path d="M206.55,45c5.09-.72,4-8.61-1.1-7.9S201.48,45.66,206.55,45Z"/><path d="M87.48,166.93c2.49-4.48-4.47-8.35-7-3.86S85,171.42,87.48,166.93Z"/><path d="M121.55,174c2.62-5.87-6.49-9.92-9.1-4.06S118.94,179.89,121.55,174Z"/><path d="M224.87,209.23c-3.57-3.69-9.3,1.84-5.74,5.54S228.43,212.93,224.87,209.23Z"/><path d="M170.55,194c2.62-5.87-6.49-9.92-9.1-4.06S167.94,199.89,170.55,194Z"/><path d="M194,151.05c.07-3.84-5.9-3.94-6-.1S193.92,154.89,194,151.05Z"/><path d="M169.74,160c-6.41.34-5.9,10.29.52,10S176.16,159.69,169.74,160Z"/><path d="M86,126.45c-.72-5.09-8.61-4-7.9,1.1S86.66,131.52,86,126.45Z"/><path d="M157.6,97.17c1.51-2.07-1.7-4.41-3.2-2.34S156.1,99.24,157.6,97.17Z"/><path d="M138.87,183.38c-6-2.4-9.69,6.83-3.74,9.24S144.82,185.79,138.87,183.38Z"/><path d="M84.4,39.82c-4.1-3.09-8.9,3.27-4.8,6.36S88.5,42.91,84.4,39.82Z"/><path d="M104.69,171c-3.83.4-3.2,6.34.62,5.94S108.51,170.63,104.69,171Z"/><path d="M121,250h7.9C127,247.77,123,247.27,121,250Z"/><path d="M129.68,4.7A4.51,4.51,0,0,0,128.9,0H121a5.14,5.14,0,0,0-.68,1.3C118.12,7.32,127.49,10.74,129.68,4.7Z"/><path d="M88.3,187.23c-4.86-1.67-7.44,5.87-2.6,7.54S93.14,188.9,88.3,187.23Z"/><path d="M144.42,153c3.8-.53,3-6.44-.84-5.91S140.61,153.49,144.42,153Z"/><path d="M140.55,203.61c3.37,1.86,6.26-3.36,2.9-5.22S137.19,201.75,140.55,203.61Z"/><path d="M33.07,169.93c5.06-4-1.08-11.81-6.14-7.86S28,173.88,33.07,169.93Z"/><path d="M98.61,231c-3.87-3.37-9.09,2.65-5.22,6S102.48,234.36,98.61,231Z"/><path d="M45.35,68c-5.12-.45-5.8,7.49-.7,7.94S50.45,68.48,45.35,68Z"/><path d="M213.75,35c-2.53,2.91,2,6.82,4.5,3.92S216.27,32.14,213.75,35Z"/><path d="M33.64,239.26c-4.82,1.75-2.1,9.24,2.72,7.48S38.46,237.5,33.64,239.26Z"/><path d="M232.83,167.9c-1.42-4.93-9.07-2.73-7.66,2.2S234.24,172.83,232.83,167.9Z"/><path d="M123,129.83c-.23,6.42,9.74,6.75,10,.34S123.24,123.42,123,129.83Z"/><path d="M91.51,223.69c4.76,1.93,7.74-5.46,3-7.38S86.75,221.77,91.51,223.69Z"/><path d="M15.94,200.62c.8-5.07-7.07-6.31-7.88-1.24S15.13,205.69,15.94,200.62Z"/><path d="M237.52,1.52A5.1,5.1,0,0,0,238.59,0h-9C231,2.71,234.73,4.32,237.52,1.52Z"/><path d="M230.48,244.48a4.53,4.53,0,0,0-.91,5.52h9C240.58,245.61,234.53,240.42,230.48,244.48Z"/><path d="M63.49,91.9c-4,3.24,1,9.42,5,6.2S67.48,88.68,63.49,91.9Z"/><path d="M184.41,174c2.51,5.91,11.68,2,9.18-3.9S181.91,168,184.41,174Z"/><path d="M198.48,67.52c4.53,4.54,11.59-2.5,7-7S193.93,63,198.48,67.52Z"/><path d="M4,243.65c-.45,6.41,9.49,7.1,9.94.7S4.48,237.25,4,243.65Z"/><path d="M108.21,46.63c-1.77,6.16,7.81,8.92,9.58,2.74S110,40.45,108.21,46.63Z"/><path d="M221.77,68.64c3.41,5.45,11.86.16,8.46-5.28S218.37,63.2,221.77,68.64Z"/><path d="M96.13,112.15c-3.67,1.12-1.94,6.83,1.74,5.7S99.81,111,96.13,112.15Z"/><path d="M182.87,184.48c-4.53-2.4-8.27,4.63-3.74,7S187.4,186.89,182.87,184.48Z"/><path d="M174.18,30c1.25,3.63,6.89,1.7,5.64-1.94S172.93,26.33,174.18,30Z"/><path d="M86.1,74c3.84-.13,3.64-6.1-.2-6S82.26,74.12,86.1,74Z"/><path d="M12.35,134c6.4-.45,5.71-10.39-.7-9.94S5.94,134.42,12.35,134Z"/><path d="M150.83,124c6.42.23,6.75-9.74.34-10S144.42,123.76,150.83,124Z"/><path d="M53.77,103.3c4.26,2.87,8.71-3.74,4.46-6.6S49.52,100.44,53.77,103.3Z"/><path d="M39.37,100.4c1.8,3.39,7.07.6,5.26-2.8S37.56,97,39.37,100.4Z"/><path d="M105.77,165.87c3.69-3.57-1.85-9.3-5.54-5.74S102.08,169.43,105.77,165.87Z"/><path d="M238.55,117.05c-5.07-.71-6.19,7.18-1.1,7.9S243.64,117.77,238.55,117.05Z"/><path d="M0,168.29V174A5.15,5.15,0,0,0,0,168.29Z"/><path d="M244.21,166.35c-6,2.3-2.42,11.61,3.58,9.3A4.81,4.81,0,0,0,250,174v-5.73A4.6,4.6,0,0,0,244.21,166.35Z"/><path d="M87.74,181c3.83.34,4.35-5.61.52-5.94S83.91,180.64,87.74,181Z"/><path d="M72,63.86c-.18,5.12,7.78,5.41,8,.28S72.2,58.73,72,63.86Z"/><path d="M172.58,230.36c5.61,3.11,10.46-5.6,4.84-8.72S167,227.24,172.58,230.36Z"/><path d="M137.21,237.77c-1.58,4.87,6,7.35,7.58,2.46S138.8,232.88,137.21,237.77Z"/><path d="M37.41,28c2.51,5.9,11.69,2,9.18-3.9S34.9,22,37.41,28Z"/><path d="M4.32,70.61c4.65,2.17,8-5,3.36-7.22S-.33,68.44,4.32,70.61Z"/><path d="M37.22,151.66c-3-4.16-9.46.53-6.44,4.68S40.24,155.81,37.22,151.66Z"/><path d="M215,91.15c-5,1.33-2.89,9,2.06,7.7S219.92,89.82,215,91.15Z"/><path d="M204.07,144c5.19,3.77,11.06-4.29,5.86-8.06S198.87,140.26,204.07,144Z"/><path d="M165,9.85c4.95,1.33,7-6.37,2.06-7.7S160,8.52,165,9.85Z"/><path d="M25.21,105.16c-6.23-1.55-8.65,8.12-2.42,9.68S31.44,106.72,25.21,105.16Z"/><path d="M28.4,9.66c-3-5.67-11.81-1-8.8,4.68S31.41,15.32,28.4,9.66Z"/><path d="M95.46,25.77c6.14-1.88,3.22-11.41-2.92-9.54S89.32,27.64,95.46,25.77Z"/><path d="M200.74,161.7c3.48,1.63,6-3.78,2.52-5.4S197.25,160.08,200.74,161.7Z"/><path d="M62.55,177.05c-5.07-.71-6.19,7.18-1.1,7.9S67.64,177.77,62.55,177.05Z"/><path d="M90.55,88.61c3.37,1.86,6.26-3.36,2.9-5.22S87.19,86.75,90.55,88.61Z"/><path d="M101.83,182.1c-5-1.06-6.68,6.73-1.66,7.8S106.85,183.17,101.83,182.1Z"/><path d="M127.9,204.17c-4.93,1.41-2.74,9.08,2.2,7.66S132.84,202.75,127.9,204.17Z"/><path d="M181.08,106.69c.89,5.06,8.73,3.67,7.84-1.38S180.19,101.64,181.08,106.69Z"/><path d="M235.3,22.32c-6,2.19-2.63,11.56,3.4,9.36S241.33,20.12,235.3,22.32Z"/><path d="M241.13,110.14c3.23,4,8.84.76,8.87-3.24v-.22a4.75,4.75,0,0,0-1.13-2.82C244.83,98.87,237.09,105.15,241.13,110.14Z"/><path d="M210,48c-.07,3.84,5.9,3.95,6,.1S210.08,44.1,210,48Z"/><path d="M2.77,47.64c3.4,5.44,11.86.17,8.46-5.28S-.63,42.19,2.77,47.64Z"/><path d="M162.79,139.77c-1.59-4.89-9.16-2.42-7.58,2.46S164.37,144.64,162.79,139.77Z"/><path d="M168.9,121.28c-.93-3.73-6.73-2.29-5.8,1.44S169.83,125,168.9,121.28Z"/><path d="M228.59,6.54c-4.46-4.62-11.64,2.3-7.18,6.92S233.05,11.16,228.59,6.54Z"/><path d="M203.36,203.26c-4.82-1.76-7.54,5.73-2.72,7.48S208.18,205,203.36,203.26Z"/><path d="M57.49,190.31c-4.75-1.92-7.74,5.46-3,7.38S62.25,192.23,57.49,190.31Z"/><path d="M191.71,71.19c-6.21,1.66-3.62,11.28,2.58,9.62S197.91,69.53,191.71,71.19Z"/><path d="M104,204.12c-6.29-1.33-8.35,8.42-2.08,9.76S110.31,205.46,104,204.12Z"/><path d="M154,214.74c-.34-6.41-10.29-5.9-10,.52S154.31,221.16,154,214.74Z"/><path d="M240.44,66.22c1.57,2,4.7-.43,3.12-2.44S238.86,64.21,240.44,66.22Z"/><path d="M193.77,4.54c-1.88-6.13-11.41-3.23-9.54,2.92S195.64,10.69,193.77,4.54Z"/><path d="M146.23,85.7c-4.26-2.87-8.71,3.74-4.46,6.6S150.48,88.56,146.23,85.7Z"/><path d="M136.23,72.46c1.88,6.13,11.41,3.23,9.54-2.92S134.36,66.31,136.23,72.46Z"/><path d="M105,3.42c.53-3.81-5.38-4.64-5.92-.84S104.42,7.22,105,3.42Z"/><path d="M24.35,31.4c4.38,4.69,11.68-2.1,7.3-6.8S20,26.7,24.35,31.4Z"/><path d="M233.46,236.77c6.13-1.88,3.23-11.41-2.92-9.54S227.31,238.64,233.46,236.77Z"/><path d="M83.9,223.17c-1.07-5-8.86-3.36-7.8,1.66S85,228.19,83.9,223.17Z"/><path d="M26.61,131.05c-6.38-.78-7.58,9.12-1.22,9.9S33,131.83,26.61,131.05Z"/><path d="M118.52,134.89c-2.72-5.82-11.75-1.6-9,4.22S121.23,140.71,118.52,134.89Z"/><path d="M51.13,65.62c6,2.41,9.68-6.84,3.74-9.24S45.19,63.22,51.13,65.62Z"/><path d="M81.62,93.36c-4.68-2.09-7.93,5.19-3.24,7.28S86.31,95.45,81.62,93.36Z"/><path d="M9.48,35.52c4.53,4.54,11.59-2.5,7-7S4.93,31,9.48,35.52Z"/><path d="M1.87,55.82A2.78,2.78,0,0,0,0,52.31v5.46A2.69,2.69,0,0,0,1.87,55.82Z"/><path d="M246.13,54.18c-.75,2.6,1.88,4.18,3.87,3.59V52.31A2.84,2.84,0,0,0,246.13,54.18Z"/><path d="M38.4,177.82c-4.1-3.09-8.89,3.28-4.8,6.36S42.49,180.9,38.4,177.82Z"/><path d="M193,242.91c-.12,6.42,9.85,6.6,10,.18S193.13,236.49,193,242.91Z"/><path d="M32.62,84.89c-2.72,4.35,4,8.57,6.76,4.22S35.34,80.54,32.62,84.89Z"/><path d="M238,211.21c.27,3.83,6.23,3.42,6-.42S237.75,207.37,238,211.21Z"/><path d="M81.33,6.91c3.75.86,5.08-4.95,1.34-5.82S77.59,6,81.33,6.91Z"/><path d="M178.08,89.78c1,6.35,10.85,4.78,9.84-1.56S177.07,83.44,178.08,89.78Z"/><path d="M40.79,14.07c1.37-3.59-4.2-5.73-5.58-2.14S39.41,17.66,40.79,14.07Z"/><path d="M148.05,13.55c.72,5.08,8.61,4,7.9-1.1S147.34,8.47,148.05,13.55Z"/><path d="M71.38,18.07c-5.07.8-3.83,8.67,1.24,7.86S76.45,17.26,71.38,18.07Z"/><path d="M233.49,180.42c-3.32-1.92-6.31,3.24-3,5.16S236.82,182.34,233.49,180.42Z"/><path d="M123.05,221.58c-4.4-2.64-8.5,4.19-4.1,6.83S127.45,224.23,123.05,221.58Z"/><path d="M99.87,122.38c-6-2.41-9.68,6.84-3.74,9.24S105.81,124.78,99.87,122.38Z"/><path d="M98.7,64.77c-2.87,4.25,3.73,8.72,6.6,4.46S101.57,60.51,98.7,64.77Z"/><path d="M107.2,28c1.31,3.62,6.92,1.57,5.6-2S105.88,24.41,107.2,28Z"/><path d="M188.92,44.29c2.94-2.48-.9-7-3.84-4.58S186,46.75,188.92,44.29Z"/><path d="M104.42,107c5.1-.53,4.27-8.46-.84-7.92S99.31,107.5,104.42,107Z"/><path d="M8.09,166.72c3.5,3.75,9.32-1.69,5.82-5.44S4.59,163,8.09,166.72Z"/><path d="M236.08,46.78c1,6.33,10.85,4.79,9.84-1.56S235.07,40.43,236.08,46.78Z"/><path d="M35.09,121.72c3.49,3.75,9.33-1.68,5.82-5.44S31.58,118,35.09,121.72Z"/><path d="M204,28c6.42,0,6.41-10,0-10S197.59,28,204,28Z"/><path d="M75.35,197c-6.41-.45-7.1,9.49-.7,9.94S81.75,197.48,75.35,197Z"/><path d="M181.83,55.75c3.54,1.5,5.88-4,2.34-5.5S178.29,54.24,181.83,55.75Z"/><path d="M247.42,202.36c5.61-3.11.78-11.83-4.84-8.72S241.8,205.47,247.42,202.36Z"/><path d="M8.91,97.72c3.51-3.76-2.33-9.19-5.82-5.44S5.42,101.47,8.91,97.72Z"/><path d="M87.77,141.12c1.44-3.57-4.1-5.8-5.54-2.24S86.33,144.68,87.77,141.12Z"/><path d="M198.38,102.71c6.07,2.09,9.31-7.33,3.24-9.42S192.31,100.62,198.38,102.71Z"/><path d="M26.57,56c6.4.55,7.25-9.38.86-9.94S20.18,55.41,26.57,56Z"/><path d="M208.57,186c-6.39.56-5.54,10.49.86,9.94S215,185.47,208.57,186Z"/><path d="M167,236.12c-6.28-1.33-8.36,8.42-2.08,9.76S173.32,237.46,167,236.12Z"/><path d="M.79,134.35a5.06,5.06,0,0,0-.79-.24v9.8C4.14,143,5.77,136.26.79,134.35Z"/><path d="M247.21,143.65a4.83,4.83,0,0,0,2.79.26v-9.8C244.49,132.87,241.49,141.46,247.21,143.65Z"/><path d="M219.05,173.41c4.4-2.64.3-9.47-4.1-6.83S214.65,176.06,219.05,173.41Z"/><path d="M126.18,110.71c3.49-5.37-4.86-10.81-8.36-5.42S122.68,116.1,126.18,110.71Z"/><path d="M188.76,128.27c4.22-4.85-3.31-11.38-7.52-6.54S184.55,133.11,188.76,128.27Z"/><path d="M16.17,231.9c-1.42,4.94,6.25,7.13,7.66,2.2S17.58,227,16.17,231.9Z"/><path d="M22.6,75.65c4.69,4.37,11.5-2.91,6.8-7.3S17.9,71.26,22.6,75.65Z"/><path d="M149.18,42.8c-4.13,4.92,3.52,11.32,7.64,6.4S153.3,37.88,149.18,42.8Z"/><path d="M180.79,210c-5.12.27-4.71,8.23.42,8S185.92,209.75,180.79,210Z"/><path d="M149.54,233.56c3.29-2,.22-7.1-3.08-5.12S146.24,235.54,149.54,233.56Z"/><path d="M223.21,91.37c1.77,6.18,11.35,3.42,9.58-2.74S221.44,85.21,223.21,91.37Z"/><path d="M75,146.45c-.72-5.09-8.61-4-7.9,1.1S75.66,151.52,75,146.45Z"/><path d="M18.57,99.72c4.8,1.84,7.64-5.6,2.86-7.44S13.79,97.88,18.57,99.72Z"/><path d="M65.48,33.13c-2.41,4.53,4.63,8.27,7,3.74S67.89,28.6,65.48,33.13Z"/><path d="M153,30.28c.35,2.53,4.28,2,3.92-.56S152.68,27.75,153,30.28Z"/><path d="M197.12,224.14c-6.25-1.44-8.5,8.27-2.24,9.72S203.38,225.59,197.12,224.14Z"/><path d="M113.71,91.26c4.21,2.95,8.77-3.58,4.58-6.52S109.52,88.32,113.71,91.26Z"/><path d="M1.47,16.58c2,3.26,7.1.1,5.06-3.16S-.57,13.32,1.47,16.58Z"/><path d="M231.4,39.66c-3-5.67-11.81-1-8.8,4.68S234.41,45.32,231.4,39.66Z"/><path d="M113.21,0h-4.27A2.84,2.84,0,0,0,113.21,0Z"/><path d="M108.75,246a2.79,2.79,0,0,0,.19,4h4.27s0,0,0,0C115.77,247.06,111.27,243.14,108.75,246Z"/><path d="M68.48,242.89c-2.71,5.82,6.32,10,9,4.22S71.2,237.07,68.48,242.89Z"/><path d="M104.83,116.25c-3.54,1.51-1.2,7,2.34,5.5S108.37,114.75,104.83,116.25Z"/><path d="M143.05,171.68c2.17-1.35.06-4.72-2.1-3.36S140.89,173,143.05,171.68Z"/><path d="M170.45,142.39c-3.36-1.86-6.26,3.35-2.9,5.22S173.81,144.26,170.45,142.39Z"/><path d="M131.36,40.26c-4.82-1.76-7.55,5.73-2.72,7.48S136.19,42,131.36,40.26Z"/><path d="M42.1,235.28c-.93,3.73,4.87,5.17,5.8,1.44S43,231.55,42.1,235.28Z"/><path d="M116.68,238.12c-2.42,3,2.22,6.75,4.64,3.76S119.1,235.13,116.68,238.12Z"/><path d="M57.66,169.4c5.66,3,10.35-5.78,4.68-8.8S52,166.38,57.66,169.4Z"/><path d="M218,146.65c-.45,6.41,9.49,7.1,9.94.7S218.48,140.25,218,146.65Z"/><path d="M17.59,181.46c4.45-4.61-2.71-11.54-7.18-6.92S13.12,186.08,17.59,181.46Z"/><path d="M43,45c-3.87,5.13,4.1,11.12,8,6S46.88,39.88,43,45Z"/><path d="M91.6,97.4c1.81,1.81,4.61-1,2.8-2.8S89.79,95.6,91.6,97.4Z"/><path d="M167.36,214.42c3.11-5.62-5.61-10.45-8.72-4.84S164.25,220,167.36,214.42Z"/><path d="M70,111c0,5.14,8,5.13,8,0S70,105.87,70,111Z"/><path d="M217.82,109.52c-5.77,2.81-1.41,11.78,4.37,9S223.59,106.7,217.82,109.52Z"/><path d="M46.34,164.6c-5.66-3-10.35,5.78-4.68,8.8S52,167.62,46.34,164.6Z"/><path d="M65.58,4.51c-1.92-3.33-7.08-.34-5.16,3S67.5,7.83,65.58,4.51Z"/><path d="M189.34,144.17c2.8-4.31-3.89-8.64-6.68-4.34S186.55,148.47,189.34,144.17Z"/><path d="M166.35,112c6.41-.45,5.7-10.39-.7-9.94S160,112.42,166.35,112Z"/><path d="M158.38,63.87c2.4,5.94,11.65,2.22,9.24-3.74S156,57.91,158.38,63.87Z"/><path d="M214.89,223c1.23-6.31-8.56-8.2-9.78-1.9S213.67,229.25,214.89,223Z"/><path d="M57.39,22c-3.87,3.37,1.35,9.39,5.22,6S61.26,18.62,57.39,22Z"/><path d="M250,231v-5.76A5.28,5.28,0,0,0,250,231Z"/><path d="M2.54,232.77c6.14,1.87,9.06-7.66,2.92-9.54a4.58,4.58,0,0,0-5.46,2V231A4.79,4.79,0,0,0,2.54,232.77Z"/><path d="M156.48,178.82c-2.82-5.78-11.77-1.4-9,4.36S159.29,184.58,156.48,178.82Z"/><path d="M63.9,200.58c.74-2.44-3-3.61-3.8-1.16S63.15,203,63.9,200.58Z"/></svg>